<?xml version="1.0" encoding="UTF-8"?>
<svg version="1.1" xmlns="http://www.w3.org/2000/svg" width="1953" height="1953">
<path d="M0 0 C1.34628431 -0.00463682 2.69256734 -0.00966262 4.03884888 -0.01504517 C7.67769555 -0.02809049 11.31652384 -0.03459897 14.95539021 -0.03905582 C17.23636507 -0.04200011 19.51733505 -0.04610745 21.79830742 -0.05056 C28.95679036 -0.06421597 36.11526198 -0.07389116 43.27375704 -0.07776189 C51.49624297 -0.08223415 59.71856196 -0.09975129 67.94099718 -0.12876248 C74.32350909 -0.15048855 80.70597442 -0.160472 87.08852285 -0.16180301 C90.88788292 -0.16284351 94.68708568 -0.16858797 98.48640633 -0.18662262 C102.0676864 -0.20329306 105.64869412 -0.20516866 109.22999954 -0.19648361 C111.14385742 -0.19536539 113.05770706 -0.20893629 114.97151184 -0.22323608 C123.85465039 -0.18126217 131.94512824 1.16202799 140.57006836 3.16113281 C140.90006836 4.15113281 141.23006836 5.14113281 141.57006836 6.16113281 C143.22006836 6.16113281 144.87006836 6.16113281 146.57006836 6.16113281 C146.57006836 6.82113281 146.57006836 7.48113281 146.57006836 8.16113281 C147.68381836 8.24363281 148.79756836 8.32613281 149.94506836 8.41113281 C153.57006836 9.16113281 153.57006836 9.16113281 155.00756836 11.22363281 C155.19319336 11.86300781 155.37881836 12.50238281 155.57006836 13.16113281 C156.56006836 13.16113281 157.55006836 13.16113281 158.57006836 13.16113281 C158.57006836 13.82113281 158.57006836 14.48113281 158.57006836 15.16113281 C160.55006836 15.65613281 160.55006836 15.65613281 162.57006836 16.16113281 C162.57006836 16.82113281 162.57006836 17.48113281 162.57006836 18.16113281 C163.12694336 18.38800781 163.68381836 18.61488281 164.25756836 18.84863281 C168.25445722 21.1171373 171.10973485 23.78013227 172.57006836 28.16113281 C173.23006836 28.16113281 173.89006836 28.16113281 174.57006836 28.16113281 C174.57006836 28.82113281 174.57006836 29.48113281 174.57006836 30.16113281 C175.23006836 30.16113281 175.89006836 30.16113281 176.57006836 30.16113281 C180.42421597 33.21233301 181.53876932 37.52028714 182.57006836 42.16113281 C183.23006836 42.16113281 183.89006836 42.16113281 184.57006836 42.16113281 C184.57006836 43.15113281 184.57006836 44.14113281 184.57006836 45.16113281 C185.23006836 45.16113281 185.89006836 45.16113281 186.57006836 45.16113281 C187.03413086 46.86269531 187.03413086 46.86269531 187.50756836 48.59863281 C188.19931367 51.9488838 188.19931367 51.9488838 189.57006836 53.16113281 C189.71121997 55.83172132 189.61253943 58.48545519 189.57006836 61.16113281 C190.23006836 61.16113281 190.89006836 61.16113281 191.57006836 61.16113281 C191.57006836 63.80113281 191.57006836 66.44113281 191.57006836 69.16113281 C192.23006836 69.16113281 192.89006836 69.16113281 193.57006836 69.16113281 C193.7028418 69.94359375 193.83561523 70.72605469 193.97241211 71.53222656 C194.14901367 72.54414063 194.32561523 73.55605469 194.50756836 74.59863281 C194.6815918 75.60796875 194.85561523 76.61730469 195.03491211 77.65722656 C195.31757933 80.08987661 195.31757933 80.08987661 196.57006836 81.16113281 C196.641868 82.68041319 196.65398843 84.20280763 196.63256836 85.72363281 C196.6190332 86.96306641 196.6190332 86.96306641 196.60522461 88.22753906 C196.59362305 88.865625 196.58202148 89.50371094 196.57006836 90.16113281 C197.23006836 90.16113281 197.89006836 90.16113281 198.57006836 90.16113281 C198.61905273 90.77601563 198.66803711 91.39089844 198.71850586 92.02441406 C198.8306543 93.23677734 198.8306543 93.23677734 198.94506836 94.47363281 C199.01467773 95.27414062 199.08428711 96.07464844 199.15600586 96.89941406 C199.46571262 99.43337722 199.46571262 99.43337722 201.57006836 102.16113281 C201.76538086 104.42285156 201.76538086 104.42285156 201.69506836 106.84863281 C201.67702148 107.656875 201.65897461 108.46511719 201.64038086 109.29785156 C201.60557617 110.22017578 201.60557617 110.22017578 201.57006836 111.16113281 C202.23006836 111.16113281 202.89006836 111.16113281 203.57006836 111.16113281 C203.57006836 114.13113281 203.57006836 117.10113281 203.57006836 120.16113281 C204.23006836 120.16113281 204.89006836 120.16113281 205.57006836 120.16113281 C205.7028418 120.94359375 205.83561523 121.72605469 205.97241211 122.53222656 C206.14901367 123.54414062 206.32561523 124.55605469 206.50756836 125.59863281 C206.6815918 126.60796875 206.85561523 127.61730469 207.03491211 128.65722656 C207.31757933 131.08987661 207.31757933 131.08987661 208.57006836 132.16113281 C209.02466694 134.81576402 209.27250073 137.48302419 209.57006836 140.16113281 C209.90006836 140.16113281 210.23006836 140.16113281 210.57006836 140.16113281 C210.90006836 144.12113281 211.23006836 148.08113281 211.57006836 152.16113281 C212.23006836 152.16113281 212.89006836 152.16113281 213.57006836 152.16113281 C213.57006836 155.46113281 213.57006836 158.76113281 213.57006836 162.16113281 C214.23006836 162.16113281 214.89006836 162.16113281 215.57006836 162.16113281 C215.57006836 165.13113281 215.57006836 168.10113281 215.57006836 171.16113281 C216.23006836 171.16113281 216.89006836 171.16113281 217.57006836 171.16113281 C219.0168816 174.0547593 219.00249212 176.96943371 219.28881836 180.16503906 C219.36538848 182.15696412 219.36538848 182.15696412 220.57006836 183.16113281 C220.71121997 185.83172132 220.61253943 188.48545519 220.57006836 191.16113281 C221.23006836 191.16113281 221.89006836 191.16113281 222.57006836 191.16113281 C223.5307727 194.04324583 223.67588719 195.85963325 223.63256836 198.84863281 C223.62354492 199.656875 223.61452148 200.46511719 223.60522461 201.29785156 C223.58782227 202.22017578 223.58782227 202.22017578 223.57006836 203.16113281 C224.23006836 203.16113281 224.89006836 203.16113281 225.57006836 203.16113281 C225.57006836 206.13113281 225.57006836 209.10113281 225.57006836 212.16113281 C226.23006836 212.16113281 226.89006836 212.16113281 227.57006836 212.16113281 C227.86173503 213.61946615 228.15340169 215.07779948 228.44506836 216.53613281 C228.71770508 217.89158203 228.71770508 217.89158203 228.99584961 219.27441406 C229.37627579 221.1868967 229.74877954 223.10097364 230.11303711 225.01660156 C230.28448242 225.90992188 230.45592773 226.80324219 230.63256836 227.72363281 C230.78854492 228.54992187 230.94452148 229.37621094 231.10522461 230.22753906 C231.39079377 232.155937 231.39079377 232.155937 232.57006836 233.16113281 C232.85296017 235.4152866 233.01778026 237.66953937 233.19116211 239.93457031 C233.46207661 242.44033359 233.46207661 242.44033359 235.57006836 245.16113281 C235.82767115 247.85565803 235.65906889 250.44661656 235.57006836 253.16113281 C236.18134138 253.15904058 236.79261441 253.15694834 237.42241085 253.1547927 C336.82246875 252.81516505 436.22272507 252.52104668 869.39227336 252.06344811 C871.43685703 252.06347656 873.48144069 252.06349893 875.52602436 252.06351919 C942.91119345 252.06419349 1010.2963602 252.07355978 1077.68152776 252.08739848 C1119.59237171 252.0960047 1161.50321529 252.10217106 1203.41405994 252.10600306 C1205.57945279 252.10620109 1207.74484564 252.1064003 1209.9102385 252.10659974 C1224.27478967 252.1079209 1238.63934085 252.10919531 1253.00389203 252.1104386 C1281.52300365 252.11290741 1310.04211524 252.11564871 1338.56122682 252.11858064 C1339.91571455 252.11871989 1341.27020228 252.11885894 1342.62469001 252.11899781 C1430.93981688 252.12805414 1519.25494274 252.14391046 1607.57006836 252.16113281 C1607.90006836 252.82113281 1608.23006836 253.48113281 1608.57006836 254.16113281 C1611.96716365 254.63514611 1615.33595477 254.95266425 1618.75561523 255.19628906 C1620.90991211 255.40332031 1620.90991211 255.40332031 1624.57006836 256.16113281 C1625.82788086 258.19238281 1625.82788086 258.19238281 1626.57006836 260.16113281 C1630.18829251 260.8085468 1630.18829251 260.8085468 1632.59741211 260.88769531 C1634.57006836 261.16113281 1634.57006836 261.16113281 1637.57006836 263.16113281 C1637.57006836 263.82113281 1637.57006836 264.48113281 1637.57006836 265.16113281 C1638.14756836 265.28488281 1638.72506836 265.40863281 1639.32006836 265.53613281 C1641.59342603 266.16762105 1643.49542125 267.04971472 1645.57006836 268.16113281 C1645.57006836 268.82113281 1645.57006836 269.48113281 1645.57006836 270.16113281 C1646.23006836 270.16113281 1646.89006836 270.16113281 1647.57006836 270.16113281 C1647.57006836 270.82113281 1647.57006836 271.48113281 1647.57006836 272.16113281 C1648.27131836 272.34675781 1648.97256836 272.53238281 1649.69506836 272.72363281 C1653.63486296 274.69353011 1656.05221732 277.58355333 1658.57006836 281.16113281 C1658.90006836 282.15113281 1659.23006836 283.14113281 1659.57006836 284.16113281 C1660.56006836 284.49113281 1661.55006836 284.82113281 1662.57006836 285.16113281 C1662.57006836 285.82113281 1662.57006836 286.48113281 1662.57006836 287.16113281 C1663.23006836 287.16113281 1663.89006836 287.16113281 1664.57006836 287.16113281 C1664.75569336 288.12019531 1664.75569336 288.12019531 1664.94506836 289.09863281 C1665.15131836 289.77925781 1665.35756836 290.45988281 1665.57006836 291.16113281 C1666.23006836 291.49113281 1666.89006836 291.82113281 1667.57006836 292.16113281 C1667.57006836 293.48113281 1667.57006836 294.80113281 1667.57006836 296.16113281 C1668.23006836 296.16113281 1668.89006836 296.16113281 1669.57006836 296.16113281 C1669.57006836 297.81113281 1669.57006836 299.46113281 1669.57006836 301.16113281 C1670.56006836 301.49113281 1671.55006836 301.82113281 1672.57006836 302.16113281 C1676.83381938 310.46399279 1676.02804569 320.86994461 1675.96118164 329.93945312 C1675.94514176 332.52430347 1675.96107429 335.10758072 1675.98022461 337.69238281 C1675.99217149 347.09232534 1675.76884897 356.19821288 1672.57006836 365.16113281 C1671.91006836 365.82113281 1671.25006836 366.48113281 1670.57006836 367.16113281 C1670.17242573 369.14934594 1669.83231487 371.1505762 1669.57006836 373.16113281 C1668.91006836 373.16113281 1668.25006836 373.16113281 1667.57006836 373.16113281 C1667.57006836 375.47113281 1667.57006836 377.78113281 1667.57006836 380.16113281 C1666.58006836 380.49113281 1665.59006836 380.82113281 1664.57006836 381.16113281 C1664.57006836 383.47113281 1664.57006836 385.78113281 1664.57006836 388.16113281 C1663.91006836 388.16113281 1663.25006836 388.16113281 1662.57006836 388.16113281 C1662.63194336 388.96550781 1662.69381836 389.76988281 1662.75756836 390.59863281 C1662.51867429 395.13762014 1661.14963571 398.93014882 1659.57006836 403.16113281 C1659.24006836 403.16113281 1658.91006836 403.16113281 1658.57006836 403.16113281 C1658.24006836 405.14113281 1657.91006836 407.12113281 1657.57006836 409.16113281 C1656.91006836 409.16113281 1656.25006836 409.16113281 1655.57006836 409.16113281 C1655.59069336 410.10988281 1655.61131836 411.05863281 1655.63256836 412.03613281 C1655.57006836 415.16113281 1655.57006836 415.16113281 1654.57006836 417.16113281 C1653.91006836 417.16113281 1653.25006836 417.16113281 1652.57006836 417.16113281 C1652.57006836 419.47113281 1652.57006836 421.78113281 1652.57006836 424.16113281 C1651.91006836 424.16113281 1651.25006836 424.16113281 1650.57006836 424.16113281 C1650.63194336 425.49144531 1650.63194336 425.49144531 1650.69506836 426.84863281 C1650.54285624 430.88225387 1649.42726502 433.59800949 1647.50756836 437.09863281 C1646.3086794 439.73618852 1645.95979005 442.30317375 1645.57006836 445.16113281 C1644.91006836 445.16113281 1644.25006836 445.16113281 1643.57006836 445.16113281 C1643.59069336 446.10988281 1643.61131836 447.05863281 1643.63256836 448.03613281 C1643.57006836 451.16113281 1643.57006836 451.16113281 1642.57006836 453.16113281 C1641.91006836 453.16113281 1641.25006836 453.16113281 1640.57006836 453.16113281 C1640.57006836 455.47113281 1640.57006836 457.78113281 1640.57006836 460.16113281 C1639.91006836 460.16113281 1639.25006836 460.16113281 1638.57006836 460.16113281 C1638.61131836 461.08925781 1638.65256836 462.01738281 1638.69506836 462.97363281 C1638.57006836 466.16113281 1638.57006836 466.16113281 1636.57006836 469.16113281 C1636.1799312 471.15083231 1635.83804187 473.1513315 1635.57006836 475.16113281 C1635.24006836 475.16113281 1634.91006836 475.16113281 1634.57006836 475.16113281 C1634.24006836 477.14113281 1633.91006836 479.12113281 1633.57006836 481.16113281 C1632.91006836 481.16113281 1632.25006836 481.16113281 1631.57006836 481.16113281 C1631.59069336 482.10988281 1631.61131836 483.05863281 1631.63256836 484.03613281 C1631.57006836 487.16113281 1631.57006836 487.16113281 1630.57006836 489.16113281 C1629.91006836 489.16113281 1629.25006836 489.16113281 1628.57006836 489.16113281 C1628.57006836 491.14113281 1628.57006836 493.12113281 1628.57006836 495.16113281 C1627.91006836 495.16113281 1627.25006836 495.16113281 1626.57006836 495.16113281 C1626.63194336 496.83175781 1626.63194336 496.83175781 1626.69506836 498.53613281 C1626.57006836 502.16113281 1626.57006836 502.16113281 1624.57006836 504.16113281 C1624.16959392 506.48388458 1623.83035796 508.81852638 1623.57006836 511.16113281 C1623.24006836 511.16113281 1622.91006836 511.16113281 1622.57006836 511.16113281 C1622.24006836 513.14113281 1621.91006836 515.12113281 1621.57006836 517.16113281 C1620.91006836 517.16113281 1620.25006836 517.16113281 1619.57006836 517.16113281 C1619.59069336 518.10988281 1619.61131836 519.05863281 1619.63256836 520.03613281 C1619.57006836 523.16113281 1619.57006836 523.16113281 1618.57006836 525.16113281 C1617.91006836 525.16113281 1617.25006836 525.16113281 1616.57006836 525.16113281 C1616.57006836 527.14113281 1616.57006836 529.12113281 1616.57006836 531.16113281 C1615.91006836 531.16113281 1615.25006836 531.16113281 1614.57006836 531.16113281 C1614.57006836 533.47113281 1614.57006836 535.78113281 1614.57006836 538.16113281 C1613.58006836 538.49113281 1612.59006836 538.82113281 1611.57006836 539.16113281 C1611.57006836 541.80113281 1611.57006836 544.44113281 1611.57006836 547.16113281 C1611.24006836 547.16113281 1610.91006836 547.16113281 1610.57006836 547.16113281 C1609.25006836 551.78113281 1607.93006836 556.40113281 1606.57006836 561.16113281 C1605.91006836 561.16113281 1605.25006836 561.16113281 1604.57006836 561.16113281 C1604.57006836 563.14113281 1604.57006836 565.12113281 1604.57006836 567.16113281 C1603.91006836 567.16113281 1603.25006836 567.16113281 1602.57006836 567.16113281 C1602.57006836 569.47113281 1602.57006836 571.78113281 1602.57006836 574.16113281 C1601.58006836 574.49113281 1600.59006836 574.82113281 1599.57006836 575.16113281 C1599.44889648 576.06476562 1599.32772461 576.96839844 1599.20288086 577.89941406 C1599.03530273 579.07890625 1598.86772461 580.25839844 1598.69506836 581.47363281 C1598.53264648 582.64539063 1598.37022461 583.81714844 1598.20288086 585.02441406 C1597.57006836 588.16113281 1597.57006836 588.16113281 1595.57006836 591.16113281 C1595.1799312 593.15083231 1594.83804187 595.1513315 1594.57006836 597.16113281 C1594.24006836 597.16113281 1593.91006836 597.16113281 1593.57006836 597.16113281 C1593.24006836 599.14113281 1592.91006836 601.12113281 1592.57006836 603.16113281 C1591.91006836 603.16113281 1591.25006836 603.16113281 1590.57006836 603.16113281 C1590.57006836 605.47113281 1590.57006836 607.78113281 1590.57006836 610.16113281 C1589.58006836 610.49113281 1588.59006836 610.82113281 1587.57006836 611.16113281 C1587.44889648 612.06476562 1587.32772461 612.96839844 1587.20288086 613.89941406 C1587.03530273 615.07890625 1586.86772461 616.25839844 1586.69506836 617.47363281 C1586.53264648 618.64539063 1586.37022461 619.81714844 1586.20288086 621.02441406 C1585.57006836 624.16113281 1585.57006836 624.16113281 1583.57006836 627.16113281 C1583.1799312 629.15083231 1582.83804187 631.1513315 1582.57006836 633.16113281 C1582.24006836 633.16113281 1581.91006836 633.16113281 1581.57006836 633.16113281 C1581.24006836 635.14113281 1580.91006836 637.12113281 1580.57006836 639.16113281 C1579.91006836 639.16113281 1579.25006836 639.16113281 1578.57006836 639.16113281 C1578.59069336 640.10988281 1578.61131836 641.05863281 1578.63256836 642.03613281 C1578.57006836 645.16113281 1578.57006836 645.16113281 1577.57006836 647.16113281 C1576.91006836 647.16113281 1576.25006836 647.16113281 1575.57006836 647.16113281 C1574.91006836 651.78113281 1574.25006836 656.40113281 1573.57006836 661.16113281 C1572.91006836 661.16113281 1572.25006836 661.16113281 1571.57006836 661.16113281 C1571.57006836 661.82113281 1571.57006836 662.48113281 1571.57006836 663.16113281 C1570.91006836 663.16113281 1570.25006836 663.16113281 1569.57006836 663.16113281 C1569.24006836 667.12113281 1568.91006836 671.08113281 1568.57006836 675.16113281 C1567.91006836 675.16113281 1567.25006836 675.16113281 1566.57006836 675.16113281 C1566.44631836 676.46050781 1566.32256836 677.75988281 1566.19506836 679.09863281 C1565.98413086 681.31347656 1565.98413086 681.31347656 1565.57006836 683.16113281 C1564.91006836 683.49113281 1564.25006836 683.82113281 1563.57006836 684.16113281 C1562.87669044 687.20109761 1562.87669044 687.20109761 1562.44506836 690.72363281 C1562.27749023 691.92117188 1562.10991211 693.11871094 1561.93725586 694.35253906 C1561.81608398 695.279375 1561.69491211 696.20621094 1561.57006836 697.16113281 C1560.91006836 697.16113281 1560.25006836 697.16113281 1559.57006836 697.16113281 C1559.57006836 697.82113281 1559.57006836 698.48113281 1559.57006836 699.16113281 C1558.91006836 699.16113281 1558.25006836 699.16113281 1557.57006836 699.16113281 C1557.24006836 703.12113281 1556.91006836 707.08113281 1556.57006836 711.16113281 C1555.91006836 711.16113281 1555.25006836 711.16113281 1554.57006836 711.16113281 C1554.24006836 713.80113281 1553.91006836 716.44113281 1553.57006836 719.16113281 C1552.91006836 719.16113281 1552.25006836 719.16113281 1551.57006836 719.16113281 C1551.44889648 720.06476562 1551.32772461 720.96839844 1551.20288086 721.89941406 C1551.03530273 723.07890625 1550.86772461 724.25839844 1550.69506836 725.47363281 C1550.53264648 726.64539062 1550.37022461 727.81714844 1550.20288086 729.02441406 C1549.57006836 732.16113281 1549.57006836 732.16113281 1547.57006836 735.16113281 C1546.91006836 735.16113281 1546.25006836 735.16113281 1545.57006836 735.16113281 C1545.24006836 739.12113281 1544.91006836 743.08113281 1544.57006836 747.16113281 C1543.91006836 747.16113281 1543.25006836 747.16113281 1542.57006836 747.16113281 C1540.55812224 753.34451388 1539.08553724 759.3668529 1538.19506836 765.81347656 C1537.57006836 768.16113281 1537.57006836 768.16113281 1536.08178711 769.59082031 C1533.83946578 771.92005332 1533.82339001 774.19506251 1533.38256836 777.34863281 C1533.22401367 778.4353125 1533.06545898 779.52199219 1532.90209961 780.64160156 C1532.7925293 781.47304687 1532.68295898 782.30449219 1532.57006836 783.16113281 C1531.91006836 783.16113281 1531.25006836 783.16113281 1530.57006836 783.16113281 C1528.42337771 788.95719757 1527.04372385 794.55443226 1526.19506836 800.68066406 C1525.57006836 803.16113281 1525.57006836 803.16113281 1524.07006836 805.13769531 C1521.7118647 808.31881379 1521.69639894 811.75378242 1521.19506836 815.60253906 C1520.57006836 818.16113281 1520.57006836 818.16113281 1519.10913086 819.59082031 C1516.780121 821.96711971 1516.59913371 824.50721255 1515.94506836 827.72363281 C1514.63863979 834.02398996 1514.63863979 834.02398996 1513.57006836 836.16113281 C1512.91006836 836.16113281 1512.25006836 836.16113281 1511.57006836 836.16113281 C1511.61131836 837.02738281 1511.65256836 837.89363281 1511.69506836 838.78613281 C1511.5631933 842.34675947 1510.79357275 844.83048196 1509.57006836 848.16113281 C1509.26069336 849.41925781 1508.95131836 850.67738281 1508.63256836 851.97363281 C1508.10663086 853.55144531 1508.10663086 853.55144531 1507.57006836 855.16113281 C1506.58006836 855.49113281 1505.59006836 855.82113281 1504.57006836 856.16113281 C1504.57006836 858.47113281 1504.57006836 860.78113281 1504.57006836 863.16113281 C1503.91006836 863.16113281 1503.25006836 863.16113281 1502.57006836 863.16113281 C1502.24006836 866.13113281 1501.91006836 869.10113281 1501.57006836 872.16113281 C1500.91006836 872.16113281 1500.25006836 872.16113281 1499.57006836 872.16113281 C1499.44631836 873.15113281 1499.32256836 874.14113281 1499.19506836 875.16113281 C1498.80109296 877.97034868 1498.22413385 880.66683946 1497.50756836 883.41113281 C1496.44880055 887.00196881 1496.44880055 887.00196881 1496.57006836 890.16113281 C1495.91006836 890.16113281 1495.25006836 890.16113281 1494.57006836 890.16113281 C1494.57006836 890.82113281 1494.57006836 891.48113281 1494.57006836 892.16113281 C1493.91006836 892.16113281 1493.25006836 892.16113281 1492.57006836 892.16113281 C1492.63194336 892.86238281 1492.69381836 893.56363281 1492.75756836 894.28613281 C1492.52750735 897.81373493 1491.27806268 900.10097633 1489.57006836 903.16113281 C1488.91006836 903.16113281 1488.25006836 903.16113281 1487.57006836 903.16113281 C1487.57006836 904.15113281 1487.57006836 905.14113281 1487.57006836 906.16113281 C1486.91006836 906.16113281 1486.25006836 906.16113281 1485.57006836 906.16113281 C1485.24006836 907.81113281 1484.91006836 909.46113281 1484.57006836 911.16113281 C1483.91006836 911.16113281 1483.25006836 911.16113281 1482.57006836 911.16113281 C1482.57006836 911.82113281 1482.57006836 912.48113281 1482.57006836 913.16113281 C1481.91006836 913.16113281 1481.25006836 913.16113281 1480.57006836 913.16113281 C1480.57006836 914.15113281 1480.57006836 915.14113281 1480.57006836 916.16113281 C1479.91006836 916.16113281 1479.25006836 916.16113281 1478.57006836 916.16113281 C1478.24006836 917.48113281 1477.91006836 918.80113281 1477.57006836 920.16113281 C1476.91006836 920.16113281 1476.25006836 920.16113281 1475.57006836 920.16113281 C1475.57006836 920.82113281 1475.57006836 921.48113281 1475.57006836 922.16113281 C1474.99256836 922.40863281 1474.41506836 922.65613281 1473.82006836 922.91113281 C1471.48707969 924.07242078 1471.48707969 924.07242078 1469.69506836 926.03613281 C1467.22169195 928.50950922 1464.4736677 930.22539992 1461.57006836 932.16113281 C1461.24006836 932.82113281 1460.91006836 933.48113281 1460.57006836 934.16113281 C1458.54266665 935.03501286 1456.47934466 935.69094203 1454.38256836 936.37988281 C1452.3749404 937.01442727 1452.3749404 937.01442727 1451.57006836 939.16113281 C1448.48058731 939.80776838 1445.38620765 940.1854163 1442.25756836 940.59863281 C1441.37069336 940.78425781 1440.48381836 940.96988281 1439.57006836 941.16113281 C1439.24006836 941.82113281 1438.91006836 942.48113281 1438.57006836 943.16113281 C1432.87304737 944.48182937 1426.74206449 944.31159782 1420.91861629 944.31851006 C1420.09073156 944.32335986 1419.26284683 944.32820966 1418.40987469 944.33320643 C1415.64051491 944.34821946 1412.87117932 944.35635443 1410.10179138 944.36447144 C1408.08325422 944.37387937 1406.06471889 944.38368818 1404.04618543 944.3938607 C1398.47515198 944.42059217 1392.90411065 944.44106944 1387.333047 944.46033782 C1382.50982235 944.47771697 1377.68661441 944.49847716 1372.86340307 944.51918301 C1357.37937693 944.5854967 1341.8953222 944.64051625 1326.41124625 944.69343231 C1319.91460643 944.71572151 1313.41797199 944.73940073 1306.92133755 944.76319952 C1223.70148054 945.06804036 1140.48168019 945.22517035 848.62055127 945.29059467 C820.3220478 945.28623489 792.02354803 945.28664395 763.72504459 945.29104992 C670.88379681 945.30546804 578.04248899 945.31669013 305.57076177 944.7551964 C299.06025209 944.73145188 292.54974111 944.7082552 286.03922582 944.68609858 C269.97007898 944.63135874 253.90096726 944.5720071 237.83187222 944.50333261 C233.0510742 944.48300266 228.2702755 944.46469385 223.48946261 944.44823599 C218.03335807 944.42928628 212.57729382 944.4057207 207.12122517 944.37835477 C205.15898681 944.36925293 203.19674021 944.36175479 201.23448909 944.35603155 C198.57583061 944.34799937 195.91726711 944.33400965 193.25864315 944.31851006 C192.50263036 944.31761721 191.74661756 944.31672437 190.96769529 944.31580447 C180.19734417 944.23463359 180.19734417 944.23463359 175.57006836 943.16113281 C175.24006836 942.50113281 174.91006836 941.84113281 174.57006836 941.16113281 C171.51137276 940.55299746 168.44997221 940.20121636 165.35522461 939.82128906 C162.57006836 939.16113281 162.57006836 939.16113281 160.57006836 936.16113281 C157.01334656 934.94232071 157.01334656 934.94232071 153.57006836 934.16113281 C153.57006836 933.50113281 153.57006836 932.84113281 153.57006836 932.16113281 C152.97194336 932.05800781 152.37381836 931.95488281 151.75756836 931.84863281 C149.26137819 931.0641159 148.31274971 930.06223974 146.57006836 928.16113281 C145.91006836 927.83113281 145.25006836 927.50113281 144.57006836 927.16113281 C144.57006836 926.50113281 144.57006836 925.84113281 144.57006836 925.16113281 C143.91006836 925.16113281 143.25006836 925.16113281 142.57006836 925.16113281 C142.57006836 924.50113281 142.57006836 923.84113281 142.57006836 923.16113281 C141.97709961 923.06703125 141.38413086 922.97292969 140.77319336 922.87597656 C138.07864195 922.00168063 137.1068408 920.89392964 135.32006836 918.72363281 C134.53889648 917.79744141 134.53889648 917.79744141 133.74194336 916.85253906 C132.57006836 915.16113281 132.57006836 915.16113281 132.57006836 913.16113281 C131.91006836 913.16113281 131.25006836 913.16113281 130.57006836 913.16113281 C129.06225586 911.04394531 129.06225586 911.04394531 127.44506836 908.28613281 C126.90624023 907.38121094 126.36741211 906.47628906 125.81225586 905.54394531 C124.57006836 903.16113281 124.57006836 903.16113281 124.57006836 901.16113281 C123.91006836 901.16113281 123.25006836 901.16113281 122.57006836 901.16113281 C122.57006836 899.51113281 122.57006836 897.86113281 122.57006836 896.16113281 C121.91006836 896.16113281 121.25006836 896.16113281 120.57006836 896.16113281 C120.57006836 894.51113281 120.57006836 892.86113281 120.57006836 891.16113281 C119.58006836 890.83113281 118.59006836 890.50113281 117.57006836 890.16113281 C117.57006836 887.52113281 117.57006836 884.88113281 117.57006836 882.16113281 C116.91006836 882.16113281 116.25006836 882.16113281 115.57006836 882.16113281 C115.54541738 877.19490932 115.52723187 872.22872115 115.51513672 867.26245117 C115.51009646 865.57168966 115.50326431 863.88093252 115.49462891 862.19018555 C115.48254979 859.76512574 115.47683713 857.34012337 115.47241211 854.91503906 C115.46467018 853.77440758 115.46467018 853.77440758 115.45677185 852.61073303 C115.45657598 850.79380711 115.50809559 848.97700154 115.57006836 847.16113281 C115.90006836 846.83113281 116.23006836 846.50113281 116.57006836 846.16113281 C116.93767567 843.83295318 117.27248417 841.49929431 117.57006836 839.16113281 C118.56006836 838.83113281 119.55006836 838.50113281 120.57006836 838.16113281 C120.57006836 836.18113281 120.57006836 834.20113281 120.57006836 832.16113281 C121.23006836 832.16113281 121.89006836 832.16113281 122.57006836 832.16113281 C122.57006836 830.51113281 122.57006836 828.86113281 122.57006836 827.16113281 C123.23006836 826.83113281 123.89006836 826.50113281 124.57006836 826.16113281 C125.22220128 824.13650026 125.22220128 824.13650026 125.57006836 822.16113281 C126.23006836 822.16113281 126.89006836 822.16113281 127.57006836 822.16113281 C127.93358398 821.33935547 127.93358398 821.33935547 128.30444336 820.50097656 C132.88385724 812.03471449 139.93598449 805.22137688 147.88256836 799.97363281 C150.63743252 798.43597858 150.63743252 798.43597858 151.57006836 796.16113281 C153.89163433 795.75384054 156.22694706 795.41674605 158.57006836 795.16113281 C158.90006836 793.84113281 159.23006836 792.52113281 159.57006836 791.16113281 C160.2803418 791.02835938 160.99061523 790.89558594 161.72241211 790.75878906 C162.64151367 790.5821875 163.56061523 790.40558594 164.50756836 790.22363281 C165.4240918 790.04960938 166.34061523 789.87558594 167.28491211 789.69628906 C169.5229668 789.38398293 169.5229668 789.38398293 170.57006836 788.16113281 C172.90304269 788.12020344 175.23712061 788.11871558 177.57006836 788.16113281 C177.57006836 787.50113281 177.57006836 786.84113281 177.57006836 786.16113281 C181.00713767 784.619988 183.69389768 783.91056969 187.4550603 783.90632379 C188.90174866 783.89743178 188.90174866 783.89743178 190.37766305 783.88836014 C191.4314177 783.89200982 192.48517235 783.89565951 193.57085896 783.89941978 C194.69939668 783.89542372 195.8279344 783.89142766 196.99067023 783.8873105 C200.79959471 783.87627864 204.6083753 783.87954566 208.41731262 783.88265991 C211.1646252 783.87876906 213.91192837 783.87186978 216.65923518 783.86510718 C222.64640984 783.85196939 228.63355622 783.84624847 234.62074471 783.84534645 C243.52350131 783.84397177 252.42621586 783.83119637 261.3289584 783.81605871 C276.3039703 783.79092035 291.27897866 783.77506699 306.25400734 783.76447678 C321.08450903 783.75395853 335.91499725 783.73933098 350.74548912 783.71919632 C351.66706603 783.71794745 352.58864294 783.71669858 353.53814642 783.71541187 C358.21823158 783.70904826 362.89831663 783.70261104 367.57840165 783.69614549 C400.74090007 783.65046384 433.90340286 783.61402432 467.06591797 783.58300781 C499.28597657 783.55285165 531.50602627 783.51851675 563.72607422 783.47851562 C564.71896377 783.47728462 565.71185332 783.47605362 566.73483043 783.47478531 C576.70569338 783.46241862 586.67655622 783.44996689 596.64741898 783.43745283 C616.95982555 783.41196143 637.27223281 783.38703775 657.5846405 783.36245728 C658.98558603 783.36076091 658.98558603 783.36076091 660.41483349 783.35903028 C722.79990144 783.28355513 785.18498401 783.2213148 847.57006836 783.16113281 C847.57006836 782.50113281 847.57006836 781.84113281 847.57006836 781.16113281 C848.23006836 781.16113281 848.89006836 781.16113281 849.57006836 781.16113281 C849.50819336 780.33613281 849.44631836 779.51113281 849.38256836 778.66113281 C849.61731498 774.27919585 850.8962549 771.206182 852.57006836 767.16113281 C853.23006836 767.16113281 853.89006836 767.16113281 854.57006836 767.16113281 C854.57006836 764.85113281 854.57006836 762.54113281 854.57006836 760.16113281 C855.23006836 760.16113281 855.89006836 760.16113281 856.57006836 760.16113281 C856.57006836 758.18113281 856.57006836 756.20113281 856.57006836 754.16113281 C857.23006836 754.16113281 857.89006836 754.16113281 858.57006836 754.16113281 C858.90006836 751.19113281 859.23006836 748.22113281 859.57006836 745.16113281 C860.23006836 745.16113281 860.89006836 745.16113281 861.57006836 745.16113281 C861.57006836 743.51113281 861.57006836 741.86113281 861.57006836 740.16113281 C862.23006836 740.16113281 862.89006836 740.16113281 863.57006836 740.16113281 C863.53913086 738.49050781 863.53913086 738.49050781 863.50756836 736.78613281 C863.57006836 733.16113281 863.57006836 733.16113281 864.57006836 731.16113281 C865.23006836 731.16113281 865.89006836 731.16113281 866.57006836 731.16113281 C866.57006836 728.85113281 866.57006836 726.54113281 866.57006836 724.16113281 C867.23006836 724.16113281 867.89006836 724.16113281 868.57006836 724.16113281 C868.57006836 722.18113281 868.57006836 720.20113281 868.57006836 718.16113281 C869.23006836 718.16113281 869.89006836 718.16113281 870.57006836 718.16113281 C870.90006836 715.19113281 871.23006836 712.22113281 871.57006836 709.16113281 C871.90006836 709.16113281 872.23006836 709.16113281 872.57006836 709.16113281 C872.90006836 707.51113281 873.23006836 705.86113281 873.57006836 704.16113281 C874.23006836 704.16113281 874.89006836 704.16113281 875.57006836 704.16113281 C875.53913086 702.49050781 875.53913086 702.49050781 875.50756836 700.78613281 C875.57006836 697.16113281 875.57006836 697.16113281 876.57006836 695.16113281 C877.23006836 695.16113281 877.89006836 695.16113281 878.57006836 695.16113281 C878.52881836 694.31550781 878.48756836 693.46988281 878.44506836 692.59863281 C878.58541864 688.73900012 879.39787 685.82425268 880.57006836 682.16113281 C881.23006836 682.16113281 881.89006836 682.16113281 882.57006836 682.16113281 C882.90006836 679.19113281 883.23006836 676.22113281 883.57006836 673.16113281 C883.90006836 673.16113281 884.23006836 673.16113281 884.57006836 673.16113281 C885.89006836 668.54113281 887.21006836 663.92113281 888.57006836 659.16113281 C889.23006836 659.16113281 889.89006836 659.16113281 890.57006836 659.16113281 C890.52881836 658.31550781 890.48756836 657.46988281 890.44506836 656.59863281 C890.58541864 652.73900012 891.39787 649.82425268 892.57006836 646.16113281 C893.23006836 646.16113281 893.89006836 646.16113281 894.57006836 646.16113281 C894.90006836 643.19113281 895.23006836 640.22113281 895.57006836 637.16113281 C895.90006836 637.16113281 896.23006836 637.16113281 896.57006836 637.16113281 C897.89006836 632.54113281 899.21006836 627.92113281 900.57006836 623.16113281 C901.23006836 623.16113281 901.89006836 623.16113281 902.57006836 623.16113281 C902.50819336 622.33613281 902.44631836 621.51113281 902.38256836 620.66113281 C902.57847511 617.00420673 903.40944201 614.54112132 904.76928711 611.19628906 C905.93280629 608.23924763 906.73982392 605.22665073 907.57006836 602.16113281 C907.90006836 602.16113281 908.23006836 602.16113281 908.57006836 602.16113281 C910.02132566 597.18539349 911.33375465 592.19469578 912.57006836 587.16113281 C913.23006836 587.16113281 913.89006836 587.16113281 914.57006836 587.16113281 C914.50819336 586.33613281 914.44631836 585.51113281 914.38256836 584.66113281 C914.65421653 579.59036689 915.92078938 574.8104118 919.57006836 571.16113281 C920.17878765 568.60334443 920.17878765 568.60334443 920.57006836 565.72363281 C921.11831212 562.04746258 921.46960027 560.31183495 923.57006836 557.16113281 C923.96020552 555.17143331 924.30209485 553.17093412 924.57006836 551.16113281 C925.23006836 551.16113281 925.89006836 551.16113281 926.57006836 551.16113281 C926.50819336 550.33613281 926.44631836 549.51113281 926.38256836 548.66113281 C926.60734128 544.4653716 927.62785329 540.89410582 929.57006836 537.16113281 C930.23006836 536.83113281 930.89006836 536.50113281 931.57006836 536.16113281 C932.33240576 533.28119152 932.6563612 530.43380746 933.00756836 527.47363281 C933.57006836 524.16113281 933.57006836 524.16113281 935.57006836 522.16113281 C935.9705428 519.83838104 936.30977876 517.50373924 936.57006836 515.16113281 C937.23006836 515.16113281 937.89006836 515.16113281 938.57006836 515.16113281 C938.50819336 514.33613281 938.44631836 513.51113281 938.38256836 512.66113281 C938.65421653 507.59036689 939.92078938 502.8104118 943.57006836 499.16113281 C944.15837729 496.41569111 944.5239329 493.66824457 944.90991211 490.88769531 C945.62881726 487.91848942 946.76098815 486.57011526 948.57006836 484.16113281 C949.35270775 481.35848862 949.35270775 481.35848862 949.75756836 478.41113281 C949.91612305 477.42628906 950.07467773 476.44144531 950.23803711 475.42675781 C950.40239258 474.30527344 950.40239258 474.30527344 950.57006836 473.16113281 C951.23006836 473.16113281 951.89006836 473.16113281 952.57006836 473.16113281 C952.90006836 470.52113281 953.23006836 467.88113281 953.57006836 465.16113281 C954.23006836 465.16113281 954.89006836 465.16113281 955.57006836 465.16113281 C955.54944336 464.35675781 955.52881836 463.55238281 955.50756836 462.72363281 C955.57006836 460.16113281 955.57006836 460.16113281 956.57006836 459.16113281 C956.75569336 457.49050781 956.75569336 457.49050781 956.94506836 455.78613281 C957.57006836 452.16113281 957.57006836 452.16113281 959.03491211 450.82128906 C961.25808016 448.41709969 961.30992599 446.17599742 961.75756836 442.97363281 C961.91612305 441.88695312 962.07467773 440.80027344 962.23803711 439.68066406 C962.34760742 438.84921875 962.45717773 438.01777344 962.57006836 437.16113281 C963.23006836 437.16113281 963.89006836 437.16113281 964.57006836 437.16113281 C964.90006836 434.52113281 965.23006836 431.88113281 965.57006836 429.16113281 C966.23006836 429.16113281 966.89006836 429.16113281 967.57006836 429.16113281 C968.23006836 424.87113281 968.89006836 420.58113281 969.57006836 416.16113281 C970.23006836 416.16113281 970.89006836 416.16113281 971.57006836 416.16113281 C971.57006836 415.50113281 971.57006836 414.84113281 971.57006836 414.16113281 C704.27006836 413.83113281 436.97006836 413.50113281 161.57006836 413.16113281 C161.57006836 412.83113281 161.57006836 412.50113281 161.57006836 412.16113281 C158.60006836 411.83113281 155.63006836 411.50113281 152.57006836 411.16113281 C152.57006836 410.50113281 152.57006836 409.84113281 152.57006836 409.16113281 C150.89944336 409.25394531 150.89944336 409.25394531 149.19506836 409.34863281 C147.99881836 409.28675781 146.80256836 409.22488281 145.57006836 409.16113281 C144.58006836 407.67613281 144.58006836 407.67613281 143.57006836 406.16113281 C141.51377379 405.51178751 141.51377379 405.51178751 139.19506836 405.22363281 C135.11292585 404.4516892 133.2881817 403.40196026 130.57006836 400.16113281 C129.58006836 399.83113281 128.59006836 399.50113281 127.57006836 399.16113281 C127.57006836 398.50113281 127.57006836 397.84113281 127.57006836 397.16113281 C126.95131836 397.05800781 126.33256836 396.95488281 125.69506836 396.84863281 C123.57006836 396.16113281 123.57006836 396.16113281 121.57006836 393.16113281 C120.58006836 392.83113281 119.59006836 392.50113281 118.57006836 392.16113281 C117.87069304 390.84466163 117.20277703 389.5109113 116.57006836 388.16113281 C115.91006836 387.83113281 115.25006836 387.50113281 114.57006836 387.16113281 C114.57006836 386.50113281 114.57006836 385.84113281 114.57006836 385.16113281 C113.91006836 385.16113281 113.25006836 385.16113281 112.57006836 385.16113281 C108.57006836 380.69054458 108.57006836 380.69054458 108.57006836 378.16113281 C107.91006836 378.16113281 107.25006836 378.16113281 106.57006836 378.16113281 C106.24006836 376.51113281 105.91006836 374.86113281 105.57006836 373.16113281 C104.91006836 373.16113281 104.25006836 373.16113281 103.57006836 373.16113281 C103.57006836 371.84113281 103.57006836 370.52113281 103.57006836 369.16113281 C102.91006836 369.16113281 102.25006836 369.16113281 101.57006836 369.16113281 C101.24006836 367.51113281 100.91006836 365.86113281 100.57006836 364.16113281 C99.91006836 364.16113281 99.25006836 364.16113281 98.57006836 364.16113281 C98.24006836 362.51113281 97.91006836 360.86113281 97.57006836 359.16113281 C97.24006836 359.16113281 96.91006836 359.16113281 96.57006836 359.16113281 C96.43729492 358.45085937 96.30452148 357.74058594 96.16772461 357.00878906 C95.99112305 356.0896875 95.81452148 355.17058594 95.63256836 354.22363281 C95.45854492 353.30710937 95.28452148 352.39058594 95.10522461 351.44628906 C94.79291847 349.20823437 94.79291847 349.20823437 93.57006836 348.16113281 C93.49826872 346.64185243 93.48614829 345.119458 93.50756836 343.59863281 C93.5165918 342.77234375 93.52561523 341.94605469 93.53491211 341.09472656 C93.55231445 340.13759766 93.55231445 340.13759766 93.57006836 339.16113281 C92.91006836 339.16113281 92.25006836 339.16113281 91.57006836 339.16113281 C91.57006836 336.19113281 91.57006836 333.22113281 91.57006836 330.16113281 C90.91006836 330.16113281 90.25006836 330.16113281 89.57006836 330.16113281 C88.60936402 327.27901979 88.46424953 325.46263237 88.50756836 322.47363281 C88.5165918 321.66539062 88.52561523 320.85714844 88.53491211 320.02441406 C88.55231445 319.10208984 88.55231445 319.10208984 88.57006836 318.16113281 C87.91006836 318.16113281 87.25006836 318.16113281 86.57006836 318.16113281 C86.24006836 315.52113281 85.91006836 312.88113281 85.57006836 310.16113281 C85.24006836 310.16113281 84.91006836 310.16113281 84.57006836 310.16113281 C84.43729492 309.30648438 84.30452148 308.45183594 84.16772461 307.57128906 C83.90282227 305.91419922 83.90282227 305.91419922 83.63256836 304.22363281 C83.45854492 303.12148438 83.28452148 302.01933594 83.10522461 300.88378906 C82.851617 298.25686352 82.851617 298.25686352 81.57006836 297.16113281 C81.25083344 295.10384111 81.05845484 293.0449976 80.85131836 290.97363281 C80.75008792 289.14437951 80.75008792 289.14437951 79.57006836 288.16113281 C79.49826872 286.64185243 79.48614829 285.119458 79.50756836 283.59863281 C79.5165918 282.77234375 79.52561523 281.94605469 79.53491211 281.09472656 C79.55231445 280.13759766 79.55231445 280.13759766 79.57006836 279.16113281 C78.91006836 279.16113281 78.25006836 279.16113281 77.57006836 279.16113281 C77.43729492 278.37867188 77.30452148 277.59621094 77.16772461 276.79003906 C76.90282227 275.27216797 76.90282227 275.27216797 76.63256836 273.72363281 C76.45854492 272.71429687 76.28452148 271.70496094 76.10522461 270.66503906 C75.82255739 268.23238902 75.82255739 268.23238902 74.57006836 267.16113281 C74.11546978 264.5065016 73.86763598 261.83924144 73.57006836 259.16113281 C73.24006836 259.16113281 72.91006836 259.16113281 72.57006836 259.16113281 C72.44889648 258.48308594 72.32772461 257.80503906 72.20288086 257.10644531 C71.06306074 250.77605972 69.85517143 244.46360637 68.57006836 238.16113281 C68.24006836 238.16113281 67.91006836 238.16113281 67.57006836 238.16113281 C67.4965918 237.23880859 67.4965918 237.23880859 67.42163086 236.29785156 C67.34686523 235.48960937 67.27209961 234.68136719 67.19506836 233.84863281 C67.0906543 232.64787109 67.0906543 232.64787109 66.98413086 231.42285156 C66.6744241 228.88888841 66.6744241 228.88888841 64.57006836 226.16113281 C64.37475586 223.89941406 64.37475586 223.89941406 64.44506836 221.47363281 C64.46311523 220.66539062 64.48116211 219.85714844 64.49975586 219.02441406 C64.52295898 218.40953125 64.54616211 217.79464844 64.57006836 217.16113281 C63.91006836 217.16113281 63.25006836 217.16113281 62.57006836 217.16113281 C62.57006836 214.19113281 62.57006836 211.22113281 62.57006836 208.16113281 C61.91006836 208.16113281 61.25006836 208.16113281 60.57006836 208.16113281 C59.60936402 205.27901979 59.46424953 203.46263237 59.50756836 200.47363281 C59.5165918 199.66539062 59.52561523 198.85714844 59.53491211 198.02441406 C59.55231445 197.10208984 59.55231445 197.10208984 59.57006836 196.16113281 C58.91006836 196.16113281 58.25006836 196.16113281 57.57006836 196.16113281 C57.24006836 193.19113281 56.91006836 190.22113281 56.57006836 187.16113281 C56.24006836 187.16113281 55.91006836 187.16113281 55.57006836 187.16113281 C55.4965918 186.23880859 55.4965918 186.23880859 55.42163086 185.29785156 C55.34686523 184.48960937 55.27209961 183.68136719 55.19506836 182.84863281 C55.0906543 181.64787109 55.0906543 181.64787109 54.98413086 180.42285156 C54.6744241 177.88888841 54.6744241 177.88888841 52.57006836 175.16113281 C52.19116211 173.15332031 52.19116211 173.15332031 52.00756836 171.03613281 C52.00319937 167.38649316 52.00319937 167.38649316 50.57006836 166.16113281 C50.57006836 163.85113281 50.57006836 161.54113281 50.57006836 159.16113281 C29.78006836 159.16113281 8.99006836 159.16113281 -12.42993164 159.16113281 C-12.42993164 158.50113281 -12.42993164 157.84113281 -12.42993164 157.16113281 C-16.05993164 157.16113281 -19.68993164 157.16113281 -23.42993164 157.16113281 C-23.42993164 156.50113281 -23.42993164 155.84113281 -23.42993164 155.16113281 C-25.28618164 154.97550781 -25.28618164 154.97550781 -27.17993164 154.78613281 C-30.30615134 154.40366976 -32.71872401 153.85563758 -35.42993164 152.16113281 C-35.42993164 151.50113281 -35.42993164 150.84113281 -35.42993164 150.16113281 C-36.82211914 149.97550781 -36.82211914 149.97550781 -38.24243164 149.78613281 C-41.42993164 149.16113281 -41.42993164 149.16113281 -44.42993164 147.16113281 C-44.42993164 146.50113281 -44.42993164 145.84113281 -44.42993164 145.16113281 C-45.74993164 144.83113281 -47.06993164 144.50113281 -48.42993164 144.16113281 C-48.42993164 143.17113281 -48.42993164 142.18113281 -48.42993164 141.16113281 C-50.07993164 140.83113281 -51.72993164 140.50113281 -53.42993164 140.16113281 C-53.42993164 139.50113281 -53.42993164 138.84113281 -53.42993164 138.16113281 C-54.74993164 137.83113281 -56.06993164 137.50113281 -57.42993164 137.16113281 C-57.92493164 135.18113281 -57.92493164 135.18113281 -58.42993164 133.16113281 C-59.08993164 133.16113281 -59.74993164 133.16113281 -60.42993164 133.16113281 C-60.42993164 132.50113281 -60.42993164 131.84113281 -60.42993164 131.16113281 C-61.08993164 131.16113281 -61.74993164 131.16113281 -62.42993164 131.16113281 C-62.42993164 130.17113281 -62.42993164 129.18113281 -62.42993164 128.16113281 C-63.08993164 128.16113281 -63.74993164 128.16113281 -64.42993164 128.16113281 C-66.72641813 125.59966711 -67.42993164 124.68145709 -67.42993164 121.16113281 C-68.08993164 121.16113281 -68.74993164 121.16113281 -69.42993164 121.16113281 C-71.86153769 117.79429367 -72.42993164 116.42762917 -72.42993164 112.16113281 C-73.08993164 112.16113281 -73.74993164 112.16113281 -74.42993164 112.16113281 C-74.42993164 111.50113281 -74.42993164 110.84113281 -74.42993164 110.16113281 C-75.08993164 110.16113281 -75.74993164 110.16113281 -76.42993164 110.16113281 C-78.79224824 100.77644 -78.73640071 91.45186544 -78.69067383 81.84570312 C-78.67995417 79.16676195 -78.69061705 76.48849116 -78.70336914 73.80957031 C-78.7094483 65.07746076 -78.57643302 56.68846403 -76.42993164 48.16113281 C-74.94493164 47.66613281 -74.94493164 47.66613281 -73.42993164 47.16113281 C-72.62429526 45.05528843 -72.62429526 45.05528843 -72.24243164 42.59863281 C-72.08387695 41.77234375 -71.92532227 40.94605469 -71.76196289 40.09472656 C-71.65239258 39.45664062 -71.54282227 38.81855469 -71.42993164 38.16113281 C-69.44993164 37.66613281 -69.44993164 37.66613281 -67.42993164 37.16113281 C-67.42993164 35.84113281 -67.42993164 34.52113281 -67.42993164 33.16113281 C-66.76993164 33.16113281 -66.10993164 33.16113281 -65.42993164 33.16113281 C-65.09993164 32.17113281 -64.76993164 31.18113281 -64.42993164 30.16113281 C-63.76993164 30.16113281 -63.10993164 30.16113281 -62.42993164 30.16113281 C-61.76993164 28.51113281 -61.10993164 26.86113281 -60.42993164 25.16113281 C-59.76993164 25.16113281 -59.10993164 25.16113281 -58.42993164 25.16113281 C-58.09993164 23.84113281 -57.76993164 22.52113281 -57.42993164 21.16113281 C-56.10993164 20.83113281 -54.78993164 20.50113281 -53.42993164 20.16113281 C-53.42993164 19.50113281 -53.42993164 18.84113281 -53.42993164 18.16113281 C-52.43993164 18.16113281 -51.44993164 18.16113281 -50.42993164 18.16113281 C-50.09993164 17.17113281 -49.76993164 16.18113281 -49.42993164 15.16113281 C-46.42993164 13.16113281 -46.42993164 13.16113281 -43.42993164 13.16113281 C-43.42993164 12.50113281 -43.42993164 11.84113281 -43.42993164 11.16113281 C-42.76993164 11.16113281 -42.10993164 11.16113281 -41.42993164 11.16113281 C-41.42993164 10.50113281 -41.42993164 9.84113281 -41.42993164 9.16113281 C-40.65907227 8.89558594 -39.88821289 8.63003906 -39.09399414 8.35644531 C-38.09110352 8.00324219 -37.08821289 7.65003906 -36.05493164 7.28613281 C-34.55833008 6.7640625 -34.55833008 6.7640625 -33.03149414 6.23144531 C-30.32551046 5.3133078 -30.32551046 5.3133078 -28.42993164 3.16113281 C-19.05778167 -0.02539818 -9.78588956 0.00876946 0 0 Z M1139.08239746 415.55984497 C1137.6819985 417.96860692 1136.86013533 419.80622924 1136.30444336 422.51660156 C1136.13686523 423.30357422 1135.96928711 424.09054687 1135.79663086 424.90136719 C1135.63936523 425.70896484 1135.48209961 426.5165625 1135.32006836 427.34863281 C1135.14733398 428.16783203 1134.97459961 428.98703125 1134.79663086 429.83105469 C1133.89332644 433.96346976 1133.89332644 433.96346976 1133.57006836 438.16113281 C1132.91006836 438.16113281 1132.25006836 438.16113281 1131.57006836 438.16113281 C1131.38831055 439.07636719 1131.20655273 439.99160156 1131.01928711 440.93457031 C1130.76791992 442.12308594 1130.51655273 443.31160156 1130.25756836 444.53613281 C1130.01393555 445.71949219 1129.77030273 446.90285156 1129.51928711 448.12207031 C1128.57006836 451.16113281 1128.57006836 451.16113281 1125.57006836 453.16113281 C1124.54307176 456.15969937 1124.54307176 456.15969937 1123.88256836 459.59863281 C1123.63120117 460.75234375 1123.37983398 461.90605469 1123.12084961 463.09472656 C1122.48167404 466.13401079 1122.48167404 466.13401079 1122.57006836 469.16113281 C1121.58006836 469.65613281 1121.58006836 469.65613281 1120.57006836 470.16113281 C1119.72454602 472.49827068 1119.72454602 472.49827068 1119.07006836 475.28613281 C1118.81354492 476.27613281 1118.55702148 477.26613281 1118.29272461 478.28613281 C1118.05424805 479.23488281 1117.81577148 480.18363281 1117.57006836 481.16113281 C1116.97183328 483.53757009 1116.33078537 485.82826733 1115.57006836 488.16113281 C1114.58006836 488.65613281 1114.58006836 488.65613281 1113.57006836 489.16113281 C1112.99028026 491.2657636 1112.50455151 493.39677557 1112.07006836 495.53613281 C1111.27826334 499.41769875 1110.78077084 501.84507909 1108.57006836 505.16113281 C1107.96637543 507.08021172 1107.43126619 509.02147485 1106.94506836 510.97363281 C1106.68467773 511.99070312 1106.42428711 513.00777344 1106.15600586 514.05566406 C1105.56860636 517.1688814 1105.4661595 520.00135896 1105.57006836 523.16113281 C1104.91006836 523.16113281 1104.25006836 523.16113281 1103.57006836 523.16113281 C1103.57006836 523.82113281 1103.57006836 524.48113281 1103.57006836 525.16113281 C1102.91006836 525.16113281 1102.25006836 525.16113281 1101.57006836 525.16113281 C1101.37670898 526.06476563 1101.18334961 526.96839844 1100.98413086 527.89941406 C1100.72374023 529.07890625 1100.46334961 530.25839844 1100.19506836 531.47363281 C1099.93983398 532.64539063 1099.68459961 533.81714844 1099.42163086 535.02441406 C1098.57006836 538.16113281 1098.57006836 538.16113281 1096.57006836 541.16113281 C1096.40293267 543.78644805 1096.40293267 543.78644805 1096.57006836 546.16113281 C1095.91006836 546.16113281 1095.25006836 546.16113281 1094.57006836 546.16113281 C1094.43729492 546.99257813 1094.30452148 547.82402344 1094.16772461 548.68066406 C1093.99112305 549.76734375 1093.81452148 550.85402344 1093.63256836 551.97363281 C1093.45854492 553.05257812 1093.28452148 554.13152344 1093.10522461 555.24316406 C1092.57006836 558.16113281 1092.57006836 558.16113281 1091.57006836 561.16113281 C1090.91006836 561.16113281 1090.25006836 561.16113281 1089.57006836 561.16113281 C1089.2800293 562.40830078 1089.2800293 562.40830078 1088.98413086 563.68066406 C1088.72374023 564.76734375 1088.46334961 565.85402344 1088.19506836 566.97363281 C1087.8122168 568.59205078 1087.8122168 568.59205078 1087.42163086 570.24316406 C1086.57006836 573.16113281 1086.57006836 573.16113281 1084.57006836 576.16113281 C1084.40307604 579.28635115 1084.40307604 579.28635115 1084.57006836 582.16113281 C1083.91006836 582.16113281 1083.25006836 582.16113281 1082.57006836 582.16113281 C1082.43729492 582.79921875 1082.30452148 583.43730469 1082.16772461 584.09472656 C1081.99112305 584.92101562 1081.81452148 585.74730469 1081.63256836 586.59863281 C1081.45854492 587.42234375 1081.28452148 588.24605469 1081.10522461 589.09472656 C1080.57006836 591.16113281 1080.57006836 591.16113281 1079.57006836 592.16113281 C1079.52943004 593.82730396 1079.52734736 595.49501376 1079.57006836 597.16113281 C1078.91006836 597.16113281 1078.25006836 597.16113281 1077.57006836 597.16113281 C1077.37670898 598.08796875 1077.18334961 599.01480469 1076.98413086 599.96972656 C1076.72374023 601.16726563 1076.46334961 602.36480469 1076.19506836 603.59863281 C1075.93983398 604.79359375 1075.68459961 605.98855469 1075.42163086 607.21972656 C1075.14061523 608.19039062 1074.85959961 609.16105469 1074.57006836 610.16113281 C1073.91006836 610.49113281 1073.25006836 610.82113281 1072.57006836 611.16113281 C1072.57006836 613.47113281 1072.57006836 615.78113281 1072.57006836 618.16113281 C1071.91006836 618.16113281 1071.25006836 618.16113281 1070.57006836 618.16113281 C1070.24006836 621.13113281 1069.91006836 624.10113281 1069.57006836 627.16113281 C1068.91006836 627.16113281 1068.25006836 627.16113281 1067.57006836 627.16113281 C1067.37670898 627.95777344 1067.18334961 628.75441406 1066.98413086 629.57519531 C1065.68798757 634.8496002 1064.32913958 640.01923233 1062.57006836 645.16113281 C1062.57006836 645.82113281 1062.57006836 646.48113281 1062.57006836 647.16113281 C1061.91006836 647.16113281 1061.25006836 647.16113281 1060.57006836 647.16113281 C1060.57006836 649.47113281 1060.57006836 651.78113281 1060.57006836 654.16113281 C1059.91006836 654.16113281 1059.25006836 654.16113281 1058.57006836 654.16113281 C1058.24006836 657.13113281 1057.91006836 660.10113281 1057.57006836 663.16113281 C1056.91006836 663.16113281 1056.25006836 663.16113281 1055.57006836 663.16113281 C1055.37670898 663.98097656 1055.18334961 664.80082031 1054.98413086 665.64550781 C1054.72374023 666.72316406 1054.46334961 667.80082031 1054.19506836 668.91113281 C1053.93983398 669.97847656 1053.68459961 671.04582031 1053.42163086 672.14550781 C1052.57006836 675.16113281 1052.57006836 675.16113281 1051.46850586 677.30175781 C1050.28002407 679.41722202 1050.28002407 679.41722202 1050.57006836 683.16113281 C1049.91006836 683.16113281 1049.25006836 683.16113281 1048.57006836 683.16113281 C1048.57006836 685.47113281 1048.57006836 687.78113281 1048.57006836 690.16113281 C1047.91006836 690.16113281 1047.25006836 690.16113281 1046.57006836 690.16113281 C1046.24006836 693.13113281 1045.91006836 696.10113281 1045.57006836 699.16113281 C1044.91006836 699.16113281 1044.25006836 699.16113281 1043.57006836 699.16113281 C1043.29291992 700.16015625 1043.01577148 701.15917969 1042.73022461 702.18847656 C1042.36451287 703.49191072 1041.99861798 704.7952935 1041.63256836 706.09863281 C1041.35896484 707.08766602 1041.35896484 707.08766602 1041.07983398 708.09667969 C1039.68334961 713.04785156 1039.68334961 713.04785156 1038.57006836 714.16113281 C1038.52943004 715.82730396 1038.52734736 717.49501376 1038.57006836 719.16113281 C1037.91006836 719.16113281 1037.25006836 719.16113281 1036.57006836 719.16113281 C1036.57006836 721.47113281 1036.57006836 723.78113281 1036.57006836 726.16113281 C1035.91006836 726.16113281 1035.25006836 726.16113281 1034.57006836 726.16113281 C1034.24006836 729.13113281 1033.91006836 732.10113281 1033.57006836 735.16113281 C1032.91006836 735.16113281 1032.25006836 735.16113281 1031.57006836 735.16113281 C1031.06719902 737.11873131 1030.56785846 739.07723658 1030.07006836 741.03613281 C1029.79163086 742.12667969 1029.51319336 743.21722656 1029.22631836 744.34082031 C1028.49452418 747.0031835 1028.49452418 747.0031835 1028.57006836 749.16113281 C1027.91006836 749.16113281 1027.25006836 749.16113281 1026.57006836 749.16113281 C1026.57006836 751.14113281 1026.57006836 753.12113281 1026.57006836 755.16113281 C1025.91006836 755.16113281 1025.25006836 755.16113281 1024.57006836 755.16113281 C1024.57006836 757.47113281 1024.57006836 759.78113281 1024.57006836 762.16113281 C1023.91006836 762.16113281 1023.25006836 762.16113281 1022.57006836 762.16113281 C1022.07506836 766.12113281 1022.07506836 766.12113281 1021.57006836 770.16113281 C1020.91006836 770.16113281 1020.25006836 770.16113281 1019.57006836 770.16113281 C1018.58006836 774.78113281 1017.59006836 779.40113281 1016.57006836 784.16113281 C1045.94006836 784.16113281 1075.31006836 784.16113281 1105.57006836 784.16113281 C1105.07506836 782.67613281 1105.07506836 782.67613281 1104.57006836 781.16113281 C1105.23006836 781.16113281 1105.89006836 781.16113281 1106.57006836 781.16113281 C1106.90006836 779.51113281 1107.23006836 777.86113281 1107.57006836 776.16113281 C1107.90006836 776.16113281 1108.23006836 776.16113281 1108.57006836 776.16113281 C1108.69381836 775.04738281 1108.81756836 773.93363281 1108.94506836 772.78613281 C1109.57006836 769.16113281 1109.57006836 769.16113281 1111.57006836 767.16113281 C1111.73684118 763.57769305 1111.73684118 763.57769305 1111.57006836 760.16113281 C1112.23006836 760.16113281 1112.89006836 760.16113281 1113.57006836 760.16113281 C1113.57006836 758.18113281 1113.57006836 756.20113281 1113.57006836 754.16113281 C1114.23006836 754.16113281 1114.89006836 754.16113281 1115.57006836 754.16113281 C1115.7028418 753.59523438 1115.83561523 753.02933594 1115.97241211 752.44628906 C1116.14901367 751.7128125 1116.32561523 750.97933594 1116.50756836 750.22363281 C1116.6815918 749.49273438 1116.85561523 748.76183594 1117.03491211 748.00878906 C1117.57006836 746.16113281 1117.57006836 746.16113281 1118.57006836 745.16113281 C1118.61070668 743.49496166 1118.61278936 741.82725186 1118.57006836 740.16113281 C1119.23006836 740.16113281 1119.89006836 740.16113281 1120.57006836 740.16113281 C1120.69381836 739.04738281 1120.81756836 737.93363281 1120.94506836 736.78613281 C1121.57006836 733.16113281 1121.57006836 733.16113281 1123.57006836 731.16113281 C1123.73684118 727.57769305 1123.73684118 727.57769305 1123.57006836 724.16113281 C1124.23006836 724.16113281 1124.89006836 724.16113281 1125.57006836 724.16113281 C1125.57006836 722.18113281 1125.57006836 720.20113281 1125.57006836 718.16113281 C1126.23006836 718.16113281 1126.89006836 718.16113281 1127.57006836 718.16113281 C1127.90006836 715.52113281 1128.23006836 712.88113281 1128.57006836 710.16113281 C1129.23006836 710.16113281 1129.89006836 710.16113281 1130.57006836 710.16113281 C1130.57006836 708.18113281 1130.57006836 706.20113281 1130.57006836 704.16113281 C1131.23006836 704.16113281 1131.89006836 704.16113281 1132.57006836 704.16113281 C1132.67319336 703.08863281 1132.77631836 702.01613281 1132.88256836 700.91113281 C1133.56608938 697.18283635 1134.24474751 695.97089551 1136.57006836 693.16113281 C1137.92808131 689.58091685 1137.64288247 685.94746657 1137.57006836 682.16113281 C1138.23006836 682.16113281 1138.89006836 682.16113281 1139.57006836 682.16113281 C1140.23006836 679.85113281 1140.89006836 677.54113281 1141.57006836 675.16113281 C1141.90006836 675.16113281 1142.23006836 675.16113281 1142.57006836 675.16113281 C1142.57006836 672.85113281 1142.57006836 670.54113281 1142.57006836 668.16113281 C1143.23006836 668.16113281 1143.89006836 668.16113281 1144.57006836 668.16113281 C1144.67319336 667.06800781 1144.77631836 665.97488281 1144.88256836 664.84863281 C1145.57006836 661.16113281 1145.57006836 661.16113281 1147.07006836 659.81738281 C1149.28537536 657.37131467 1149.08339667 655.21322624 1149.25756836 651.97363281 C1149.35618164 650.34361328 1149.35618164 650.34361328 1149.45678711 648.68066406 C1149.49416992 647.84921875 1149.53155273 647.01777344 1149.57006836 646.16113281 C1150.23006836 646.16113281 1150.89006836 646.16113281 1151.57006836 646.16113281 C1152.23006836 643.85113281 1152.89006836 641.54113281 1153.57006836 639.16113281 C1153.90006836 639.16113281 1154.23006836 639.16113281 1154.57006836 639.16113281 C1154.57006836 636.85113281 1154.57006836 634.54113281 1154.57006836 632.16113281 C1155.23006836 632.16113281 1155.89006836 632.16113281 1156.57006836 632.16113281 C1156.72475586 630.49050781 1156.72475586 630.49050781 1156.88256836 628.78613281 C1157.10944336 627.58988281 1157.33631836 626.39363281 1157.57006836 625.16113281 C1158.56006836 624.50113281 1159.55006836 623.84113281 1160.57006836 623.16113281 C1161.1559947 620.04502727 1161.1559947 620.04502727 1161.25756836 616.53613281 C1161.35618164 614.75335937 1161.35618164 614.75335937 1161.45678711 612.93457031 C1161.49416992 612.01933594 1161.53155273 611.10410156 1161.57006836 610.16113281 C1162.23006836 610.16113281 1162.89006836 610.16113281 1163.57006836 610.16113281 C1163.57006836 609.50113281 1163.57006836 608.84113281 1163.57006836 608.16113281 C1164.23006836 608.16113281 1164.89006836 608.16113281 1165.57006836 608.16113281 C1166.5525536 604.10838122 1166.6516641 600.32251544 1166.57006836 596.16113281 C1167.23006836 596.16113281 1167.89006836 596.16113281 1168.57006836 596.16113281 C1168.90006836 593.19113281 1169.23006836 590.22113281 1169.57006836 587.16113281 C1170.56006836 587.16113281 1171.55006836 587.16113281 1172.57006836 587.16113281 C1172.90006836 582.87113281 1173.23006836 578.58113281 1173.57006836 574.16113281 C1174.23006836 574.16113281 1174.89006836 574.16113281 1175.57006836 574.16113281 C1175.57006836 573.50113281 1175.57006836 572.84113281 1175.57006836 572.16113281 C1176.23006836 572.16113281 1176.89006836 572.16113281 1177.57006836 572.16113281 C1178.5525536 568.10838122 1178.6516641 564.32251544 1178.57006836 560.16113281 C1179.23006836 560.16113281 1179.89006836 560.16113281 1180.57006836 560.16113281 C1181.81356193 557.17674823 1182.80962254 554.2979718 1183.57006836 551.16113281 C1183.92069336 550.23300781 1184.27131836 549.30488281 1184.63256836 548.34863281 C1185.6716065 544.81590312 1185.71658748 541.82411074 1185.57006836 538.16113281 C1186.20944336 537.93425781 1186.84881836 537.70738281 1187.50756836 537.47363281 C1189.76308356 536.33963787 1189.76308356 536.33963787 1190.32006836 533.97363281 C1190.61202178 530.68915681 1190.63468937 527.45680421 1190.57006836 524.16113281 C1191.23006836 524.16113281 1191.89006836 524.16113281 1192.57006836 524.16113281 C1195.33224165 517.97976443 1197.11867989 512.23658209 1197.98022461 505.50878906 C1198.65324621 502.83007393 1199.54804853 501.96498734 1201.57006836 500.16113281 C1202.78326978 496.19065544 1202.6509533 492.28626471 1202.57006836 488.16113281 C1203.23006836 488.16113281 1203.89006836 488.16113281 1204.57006836 488.16113281 C1204.57006836 487.50113281 1204.57006836 486.84113281 1204.57006836 486.16113281 C1205.23006836 486.16113281 1205.89006836 486.16113281 1206.57006836 486.16113281 C1206.57006836 483.85113281 1206.57006836 481.54113281 1206.57006836 479.16113281 C1207.23006836 479.16113281 1207.89006836 479.16113281 1208.57006836 479.16113281 C1208.67963867 478.3296875 1208.78920898 477.49824219 1208.90209961 476.64160156 C1209.0606543 475.55492187 1209.21920898 474.46824219 1209.38256836 473.34863281 C1209.53338867 472.2696875 1209.68420898 471.19074219 1209.83959961 470.07910156 C1210.60388212 467.02605858 1211.24794142 466.14358693 1213.57006836 464.16113281 C1214.78326978 460.19065544 1214.6509533 456.28626471 1214.57006836 452.16113281 C1215.23006836 452.16113281 1215.89006836 452.16113281 1216.57006836 452.16113281 C1216.57006836 451.50113281 1216.57006836 450.84113281 1216.57006836 450.16113281 C1217.23006836 450.16113281 1217.89006836 450.16113281 1218.57006836 450.16113281 C1219.07411644 448.05793218 1219.57317344 445.9535349 1220.07006836 443.84863281 C1220.34850586 442.676875 1220.62694336 441.50511719 1220.91381836 440.29785156 C1221.6724592 437.20583437 1221.6724592 437.20583437 1221.57006836 434.16113281 C1222.23006836 434.16113281 1222.89006836 434.16113281 1223.57006836 434.16113281 C1225.42750004 428.04708685 1226.99772253 422.5759454 1226.57006836 416.16113281 C1227.23006836 416.16113281 1227.89006836 416.16113281 1228.57006836 416.16113281 C1228.57006836 415.50113281 1228.57006836 414.84113281 1228.57006836 414.16113281 C1229.23006836 413.83113281 1229.89006836 413.50113281 1230.57006836 413.16113281 C1219.0351004 413.04534624 1207.50027039 412.95647176 1195.96483994 412.90207195 C1190.60859418 412.87596427 1185.25274564 412.84054444 1179.89672852 412.78393555 C1174.72903788 412.72965815 1169.56172959 412.6997211 1164.39377594 412.6867466 C1162.42093129 412.67749907 1160.44810785 412.65944082 1158.47542572 412.63248253 C1155.71451906 412.59624884 1152.95519749 412.59118505 1150.1940918 412.59350586 C1149.37625717 412.57552948 1148.55842255 412.5575531 1147.71580505 412.53903198 C1143.7500048 412.57516629 1141.98973654 412.7564719 1139.08239746 415.55984497 Z M1486.57006836 412.16113281 C1475.14790919 412.19913302 1463.72607924 412.25841168 1452.30417919 412.34503555 C1447.00078766 412.38458408 1441.69756399 412.41673629 1436.39404297 412.43212891 C1431.27804546 412.44724701 1426.16250927 412.48160587 1421.04671669 412.52944183 C1419.09268511 412.5443058 1417.13858768 412.55217669 1415.18449974 412.55301666 C1412.45208637 412.55537304 1409.72096177 412.58234419 1406.98876953 412.61523438 C1406.17669037 412.61020401 1405.36461121 412.60517365 1404.52792358 412.59999084 C1400.14283557 412.66449555 1400.14283557 412.66449555 1396.55561829 414.96087646 C1395.16185959 418.07246557 1395.37614631 420.79981733 1395.57006836 424.16113281 C1394.91006836 424.16113281 1394.25006836 424.16113281 1393.57006836 424.16113281 C1392.13983658 428.8332233 1391.16626791 433.29216978 1390.57006836 438.16113281 C1389.91006836 438.16113281 1389.25006836 438.16113281 1388.57006836 438.16113281 C1388.38831055 439.05316406 1388.20655273 439.94519531 1388.01928711 440.86425781 C1387.76791992 442.03472656 1387.51655273 443.20519531 1387.25756836 444.41113281 C1387.01393555 445.57128906 1386.77030273 446.73144531 1386.51928711 447.92675781 C1385.58922988 451.09584171 1384.52100499 452.58944362 1382.57006836 455.16113281 C1381.85890306 457.8644247 1381.85890306 457.8644247 1381.50756836 460.72363281 C1380.98634696 464.38211062 1380.66361722 466.02080953 1378.57006836 469.16113281 C1378.40293267 471.78644805 1378.40293267 471.78644805 1378.57006836 474.16113281 C1377.91006836 474.16113281 1377.25006836 474.16113281 1376.57006836 474.16113281 C1376.38831055 475.06476563 1376.20655273 475.96839844 1376.01928711 476.89941406 C1375.76791992 478.07890625 1375.51655273 479.25839844 1375.25756836 480.47363281 C1375.01393555 481.64539063 1374.77030273 482.81714844 1374.51928711 484.02441406 C1373.58210776 487.12134828 1372.95228551 488.13495355 1370.57006836 490.16113281 C1369.35686694 494.13161018 1369.48918342 498.03600091 1369.57006836 502.16113281 C1368.91006836 502.16113281 1368.25006836 502.16113281 1367.57006836 502.16113281 C1366.14061891 504.51552015 1365.48345575 505.64145714 1365.94506836 508.41113281 C1366.25444336 509.27738281 1366.25444336 509.27738281 1366.57006836 510.16113281 C1365.91006836 510.16113281 1365.25006836 510.16113281 1364.57006836 510.16113281 C1364.38831055 511.06476563 1364.20655273 511.96839844 1364.01928711 512.89941406 C1363.76791992 514.07890625 1363.51655273 515.25839844 1363.25756836 516.47363281 C1363.01393555 517.64539063 1362.77030273 518.81714844 1362.51928711 520.02441406 C1361.58210776 523.12134828 1360.95228551 524.13495355 1358.57006836 526.16113281 C1357.35686694 530.13161018 1357.48918342 534.03600091 1357.57006836 538.16113281 C1356.08506836 538.65613281 1356.08506836 538.65613281 1354.57006836 539.16113281 C1353.60503579 542.01615545 1353.60503579 542.01615545 1353.00756836 545.41113281 C1352.02752238 550.30582573 1350.86367964 554.65476096 1348.57006836 559.09863281 C1346.085471 564.22311486 1345.34221164 568.46471486 1345.57006836 574.16113281 C1344.58006836 574.49113281 1343.59006836 574.82113281 1342.57006836 575.16113281 C1341.64307377 578.01839265 1341.64307377 578.01839265 1341.07006836 581.41113281 C1340.19441867 586.01871808 1339.03266411 589.19361744 1336.57006836 593.16113281 C1336.57006836 594.15113281 1336.57006836 595.14113281 1336.57006836 596.16113281 C1335.91006836 596.49113281 1335.25006836 596.82113281 1334.57006836 597.16113281 C1334.25250148 600.49558504 1334.18998321 603.80920411 1334.10913086 607.15722656 C1333.93124023 608.14851562 1333.75334961 609.13980469 1333.57006836 610.16113281 C1332.25227663 610.85801671 1330.9180704 611.52464816 1329.57006836 612.16113281 C1328.682666 614.92750557 1328.682666 614.92750557 1328.38256836 618.09863281 C1327.96621427 621.30105728 1327.59285687 624.09276728 1326.57006836 627.16113281 C1325.91006836 627.16113281 1325.25006836 627.16113281 1324.57006836 627.16113281 C1321.95889302 636.52680088 1321.95889302 636.52680088 1321.57006836 646.16113281 C1320.25006836 646.49113281 1318.93006836 646.82113281 1317.57006836 647.16113281 C1317.43729492 647.98097656 1317.30452148 648.80082031 1317.16772461 649.64550781 C1316.99112305 650.72316406 1316.81452148 651.80082031 1316.63256836 652.91113281 C1316.45854492 653.97847656 1316.28452148 655.04582031 1316.10522461 656.14550781 C1315.68302665 658.52460875 1315.19803952 660.83028492 1314.57006836 663.16113281 C1313.91006836 663.16113281 1313.25006836 663.16113281 1312.57006836 663.16113281 C1312.37670898 663.94617187 1312.18334961 664.73121094 1311.98413086 665.54003906 C1311.18866761 668.74945764 1310.38141936 671.95569683 1309.57006836 675.16113281 C1309.38057617 675.92683594 1309.19108398 676.69253906 1308.99584961 677.48144531 C1308.58328751 679.05908278 1308.08573758 680.61412514 1307.57006836 682.16113281 C1306.91006836 682.49113281 1306.25006836 682.82113281 1305.57006836 683.16113281 C1304.91265911 685.83589653 1304.91265911 685.83589653 1304.50756836 688.97363281 C1303.99907607 692.42381604 1303.49104609 695.79508146 1302.57006836 699.16113281 C1301.91006836 699.16113281 1301.25006836 699.16113281 1300.57006836 699.16113281 C1300.06571142 701.09750321 1299.56672962 703.03527427 1299.07006836 704.97363281 C1298.79163086 706.05257813 1298.51319336 707.13152344 1298.22631836 708.24316406 C1297.46035888 711.15047257 1297.46035888 711.15047257 1297.57006836 714.16113281 C1296.91006836 714.16113281 1296.25006836 714.16113281 1295.57006836 714.16113281 C1295.57006836 715.81113281 1295.57006836 717.46113281 1295.57006836 719.16113281 C1294.91006836 719.16113281 1294.25006836 719.16113281 1293.57006836 719.16113281 C1293.43729492 719.98097656 1293.30452148 720.80082031 1293.16772461 721.64550781 C1292.99112305 722.72316406 1292.81452148 723.80082031 1292.63256836 724.91113281 C1292.45854492 725.97847656 1292.28452148 727.04582031 1292.10522461 728.14550781 C1291.68302665 730.52460875 1291.19803952 732.83028492 1290.57006836 735.16113281 C1289.91006836 735.16113281 1289.25006836 735.16113281 1288.57006836 735.16113281 C1288.29291992 736.16015625 1288.01577148 737.15917969 1287.73022461 738.18847656 C1287.36451287 739.49191072 1286.99861798 740.7952935 1286.63256836 742.09863281 C1286.45016602 742.75798828 1286.26776367 743.41734375 1286.07983398 744.09667969 C1284.68334961 749.04785156 1284.68334961 749.04785156 1283.57006836 750.16113281 C1283.52943004 751.82730396 1283.52734736 753.49501376 1283.57006836 755.16113281 C1282.91006836 755.16113281 1282.25006836 755.16113281 1281.57006836 755.16113281 C1281.46049805 755.8971875 1281.35092773 756.63324219 1281.23803711 757.39160156 C1281.00020508 758.85533203 1281.00020508 758.85533203 1280.75756836 760.34863281 C1280.60674805 761.3115625 1280.45592773 762.27449219 1280.30053711 763.26660156 C1279.5161282 766.37487429 1278.22273323 768.43339259 1276.57006836 771.16113281 C1275.93416307 773.22324544 1275.37176952 775.30937967 1274.88256836 777.41113281 C1274.63120117 778.46816406 1274.37983398 779.52519531 1274.12084961 780.61425781 C1273.53483978 782.88974214 1273.53483978 782.88974214 1273.57006836 784.16113281 C1302.94006836 784.16113281 1332.31006836 784.16113281 1362.57006836 784.16113281 C1362.57006836 783.17113281 1362.57006836 782.18113281 1362.57006836 781.16113281 C1363.23006836 781.16113281 1363.89006836 781.16113281 1364.57006836 781.16113281 C1365.5525536 777.10838122 1365.6516641 773.32251544 1365.57006836 769.16113281 C1366.23006836 769.16113281 1366.89006836 769.16113281 1367.57006836 769.16113281 C1369.25636955 765.65080152 1369.25636955 765.65080152 1369.19506836 761.84863281 C1368.98881836 761.29175781 1368.78256836 760.73488281 1368.57006836 760.16113281 C1369.23006836 760.16113281 1369.89006836 760.16113281 1370.57006836 760.16113281 C1370.7750293 759.3296875 1370.97999023 758.49824219 1371.19116211 757.64160156 C1371.46057617 756.55492187 1371.72999023 755.46824219 1372.00756836 754.34863281 C1372.2744043 753.2696875 1372.54124023 752.19074219 1372.81616211 751.07910156 C1373.33084248 749.08704851 1373.91944011 747.11301757 1374.57006836 745.16113281 C1375.23006836 745.16113281 1375.89006836 745.16113281 1376.57006836 745.16113281 C1377.5525536 741.10838122 1377.6516641 737.32251544 1377.57006836 733.16113281 C1378.23006836 733.16113281 1378.89006836 733.16113281 1379.57006836 733.16113281 C1381.62535006 730.07821026 1381.97788449 728.5502601 1382.50756836 724.97363281 C1384.48244874 713.24875243 1384.48244874 713.24875243 1388.57006836 709.16113281 C1389.7122971 705.16333223 1389.65114711 701.29614912 1389.57006836 697.16113281 C1390.23006836 697.16113281 1390.89006836 697.16113281 1391.57006836 697.16113281 C1391.57006836 696.50113281 1391.57006836 695.84113281 1391.57006836 695.16113281 C1392.23006836 695.16113281 1392.89006836 695.16113281 1393.57006836 695.16113281 C1394.93655696 689.84303593 1394.93655696 689.84303593 1396.07006836 684.47363281 C1396.63283717 681.87082706 1397.56105782 679.62760303 1398.57006836 677.16113281 C1400.16278882 672.83220028 1401.48673339 668.81739569 1402.07006836 664.22363281 C1402.23506836 663.21300781 1402.40006836 662.20238281 1402.57006836 661.16113281 C1403.56006836 660.50113281 1404.55006836 659.84113281 1405.57006836 659.16113281 C1406.33809001 656.38435006 1406.33809001 656.38435006 1406.69506836 653.22363281 C1407.1369348 650.03366718 1407.55033432 647.22033492 1408.57006836 644.16113281 C1409.23006836 644.16113281 1409.89006836 644.16113281 1410.57006836 644.16113281 C1412.74233399 636.18095343 1412.74233399 636.18095343 1414.07006836 628.03613281 C1414.23506836 627.08738281 1414.40006836 626.13863281 1414.57006836 625.16113281 C1415.56006836 624.50113281 1416.55006836 623.84113281 1417.57006836 623.16113281 C1418.33809001 620.38435006 1418.33809001 620.38435006 1418.69506836 617.22363281 C1419.1369348 614.03366718 1419.55033432 611.22033492 1420.57006836 608.16113281 C1421.23006836 608.16113281 1421.89006836 608.16113281 1422.57006836 608.16113281 C1422.8472168 606.8965625 1423.12436523 605.63199219 1423.40991211 604.32910156 C1423.77571334 602.66892676 1424.14160338 601.00877153 1424.50756836 599.34863281 C1424.6899707 598.51525391 1424.87237305 597.681875 1425.06030273 596.82324219 C1425.23754883 596.02080078 1425.41479492 595.21835937 1425.59741211 594.39160156 C1425.75975342 593.65321045 1425.92209473 592.91481934 1426.08935547 592.15405273 C1426.57006836 590.16113281 1426.57006836 590.16113281 1427.57006836 587.16113281 C1428.23006836 587.16113281 1428.89006836 587.16113281 1429.57006836 587.16113281 C1429.7028418 586.3296875 1429.83561523 585.49824219 1429.97241211 584.64160156 C1430.14901367 583.55492187 1430.32561523 582.46824219 1430.50756836 581.34863281 C1430.6815918 580.2696875 1430.85561523 579.19074219 1431.03491211 578.07910156 C1431.57006836 575.16113281 1431.57006836 575.16113281 1432.57006836 572.16113281 C1433.23006836 572.16113281 1433.89006836 572.16113281 1434.57006836 572.16113281 C1435.07594983 570.24601009 1435.57455227 568.3289636 1436.07006836 566.41113281 C1436.48772461 564.81011719 1436.48772461 564.81011719 1436.91381836 563.17675781 C1437.71182825 560.0240798 1437.71182825 560.0240798 1437.57006836 556.16113281 C1438.23006836 556.16113281 1438.89006836 556.16113281 1439.57006836 556.16113281 C1439.57006836 554.51113281 1439.57006836 552.86113281 1439.57006836 551.16113281 C1440.23006836 551.16113281 1440.89006836 551.16113281 1441.57006836 551.16113281 C1442.56006836 546.21113281 1443.55006836 541.26113281 1444.57006836 536.16113281 C1445.23006836 536.16113281 1445.89006836 536.16113281 1446.57006836 536.16113281 C1447.89006836 531.54113281 1449.21006836 526.92113281 1450.57006836 522.16113281 C1450.90006836 522.16113281 1451.23006836 522.16113281 1451.57006836 522.16113281 C1451.57006836 519.85113281 1451.57006836 517.54113281 1451.57006836 515.16113281 C1452.23006836 515.16113281 1452.89006836 515.16113281 1453.57006836 515.16113281 C1454.0744253 513.22476241 1454.5734071 511.28699135 1455.07006836 509.34863281 C1455.34850586 508.2696875 1455.62694336 507.19074219 1455.91381836 506.07910156 C1456.67977784 503.17179306 1456.67977784 503.17179306 1456.57006836 500.16113281 C1457.23006836 500.16113281 1457.89006836 500.16113281 1458.57006836 500.16113281 C1459.56006836 495.54113281 1460.55006836 490.92113281 1461.57006836 486.16113281 C1462.23006836 486.16113281 1462.89006836 486.16113281 1463.57006836 486.16113281 C1463.57006836 483.85113281 1463.57006836 481.54113281 1463.57006836 479.16113281 C1464.23006836 479.16113281 1464.89006836 479.16113281 1465.57006836 479.16113281 C1465.85881836 478.15050781 1466.14756836 477.13988281 1466.44506836 476.09863281 C1467.48673503 472.45279948 1468.52840169 468.80696615 1469.57006836 465.16113281 C1469.90006836 465.16113281 1470.23006836 465.16113281 1470.57006836 465.16113281 C1471.56006836 460.21113281 1472.55006836 455.26113281 1473.57006836 450.16113281 C1474.23006836 450.16113281 1474.89006836 450.16113281 1475.57006836 450.16113281 C1475.76342773 449.3296875 1475.95678711 448.49824219 1476.15600586 447.64160156 C1476.41639648 446.55492187 1476.67678711 445.46824219 1476.94506836 444.34863281 C1477.20030273 443.2696875 1477.45553711 442.19074219 1477.71850586 441.07910156 C1478.57006836 438.16113281 1478.57006836 438.16113281 1480.57006836 435.16113281 C1480.73706068 432.03591448 1480.73706068 432.03591448 1480.57006836 429.16113281 C1481.23006836 429.16113281 1481.89006836 429.16113281 1482.57006836 429.16113281 C1483.0727363 427.03676233 1483.57212446 424.91161555 1484.07006836 422.78613281 C1484.34850586 421.60277344 1484.62694336 420.41941406 1484.91381836 419.20019531 C1485.64042611 416.3534944 1485.64042611 416.3534944 1485.57006836 414.16113281 C1486.23006836 414.16113281 1486.89006836 414.16113281 1487.57006836 414.16113281 C1487.24006836 413.50113281 1486.91006836 412.84113281 1486.57006836 412.16113281 Z M1091.57006836 556.16113281 C1092.57006836 558.16113281 1092.57006836 558.16113281 1092.57006836 558.16113281 Z " fill="#9b57e2" transform="translate(160.429931640625,401.8388671875)"/>
<path d="M0 0 C24.36067494 21.26548864 38.31078571 47.99607979 40.60253906 80.39892578 C42.45246156 111.08675298 33.97542912 139.54451106 14.60253906 163.39892578 C14.02890625 164.12595703 13.45527344 164.85298828 12.86425781 165.60205078 C-4.24789141 186.34900019 -32.07297746 199.23266283 -58.39746094 202.39892578 C-90.71246132 204.52426302 -122.68287078 198.54899113 -147.74902344 176.83251953 C-148.62300781 176.02943359 -149.49699219 175.22634766 -150.39746094 174.39892578 C-150.88698242 173.95178223 -151.37650391 173.50463867 -151.88085938 173.04394531 C-174.42725788 152.22033757 -186.18473686 124.06103978 -187.68261719 93.60205078 C-188.56518298 63.16613886 -178.96237723 33.67031451 -158.36230469 10.98876953 C-118.27206925 -31.48111082 -45.46735318 -38.25477956 0 0 Z M-105.13964844 53.31298828 C-113.58933325 63.86458474 -115.7537729 75.56023742 -115.70996094 88.77392578 C-115.72607422 89.73814453 -115.7421875 90.70236328 -115.75878906 91.69580078 C-115.76698995 103.93152987 -112.09140493 114.61878446 -105.14746094 124.64892578 C-96.33802496 133.45836176 -86.12023917 137.28009604 -73.77246094 137.64892578 C-62.2523361 137.50634998 -52.08277201 134.35303096 -43.39746094 126.61767578 C-33.24690124 115.94208714 -30.00320833 100.92310634 -30.18261719 86.59033203 C-31.23205316 71.00143765 -35.46740437 58.0602303 -47.39746094 47.39892578 C-65.14748945 35.6663218 -90.63589657 37.378373 -105.13964844 53.31298828 Z " fill="#9b57e2" transform="translate(937.3974609375,898.60107421875)"/>
<path d="M0 0 C27.1940625 -0.0928125 27.1940625 -0.0928125 54.9375 -0.1875 C60.62991943 -0.21481201 66.32233887 -0.24212402 72.18725586 -0.27026367 C79.21984863 -0.28381348 79.21984863 -0.28381348 82.52784729 -0.28633118 C84.80378487 -0.29089238 87.07971589 -0.30134725 89.35560608 -0.31672668 C116.60409428 -0.49141225 141.51961393 2.24882492 162.25 21.6875 C176.63912523 36.83881003 181.68371365 55.77200246 182.25 76.125 C181.70857431 96.29310701 175.09452228 114.90828966 160.8125 129.34765625 C144.68341961 144.55827511 123.43424584 151.23279399 101.56640625 151.09765625 C100.78712769 151.09664917 100.00784912 151.09564209 99.20495605 151.09460449 C96.32412217 151.08941532 93.44330943 151.07545441 90.5625 151.0625 C84.106875 151.041875 77.65125 151.02125 71 151 C71 174.1 71 197.2 71 221 C47.57 221 24.14 221 0 221 C0 148.07 0 75.14 0 0 Z M71 56 C71 69.2 71 82.4 71 96 C76.135625 96.0928125 76.135625 96.0928125 81.375 96.1875 C82.96127197 96.22846802 82.96127197 96.22846802 84.57958984 96.27026367 C91.56662993 96.33055266 99.30265591 96.00893715 104.94458008 91.41748047 C109.44272001 86.77601572 110.95834355 81.83834391 111.02734375 75.48046875 C110.62627115 68.62109884 108.66340458 64.59142067 103.6875 59.75 C96.91431926 55.33955673 89.87702648 55.74986126 82.0625 55.875 C78.411875 55.91625 74.76125 55.9575 71 56 Z " fill="#9b57e2" transform="translate(554,878)"/>
<path d="M0 0 C48.84 0 97.68 0 148 0 C148 18.48 148 36.96 148 56 C122.26 56 96.52 56 70 56 C70 64.58 70 73.16 70 82 C92.44 82 114.88 82 138 82 C138 99.49 138 116.98 138 135 C115.56 135 93.12 135 70 135 C70 144.9 70 154.8 70 165 C95.74 165 121.48 165 148 165 C148 183.48 148 201.96 148 221 C99.16 221 50.32 221 0 221 C0 148.07 0 75.14 0 0 Z " fill="#9b57e2" transform="translate(382,878)"/>
<path d="M0 0 C1.25668488 0.00636726 1.25668488 0.00636726 2.53875732 0.01286316 C5.20846002 0.02962467 7.87740137 0.06727164 10.546875 0.10546875 C12.35936408 0.12051888 14.17186502 0.13420672 15.984375 0.14648438 C20.42216731 0.17951986 24.85939217 0.23128432 29.296875 0.29296875 C29.296875 0.95296875 29.296875 1.61296875 29.296875 2.29296875 C30.95976563 2.58300781 30.95976563 2.58300781 32.65625 2.87890625 C34.11984976 3.14160364 35.58338827 3.40464242 37.046875 3.66796875 C37.77648437 3.79429688 38.50609375 3.920625 39.2578125 4.05078125 C42.90153837 4.71327686 46.1013282 5.38494809 49.296875 7.29296875 C50.286875 7.78796875 50.286875 7.78796875 51.296875 8.29296875 C51.296875 8.95296875 51.296875 9.61296875 51.296875 10.29296875 C53.936875 10.95296875 56.576875 11.61296875 59.296875 12.29296875 C59.626875 13.61296875 59.956875 14.93296875 60.296875 16.29296875 C61.18375 16.35484375 62.070625 16.41671875 62.984375 16.48046875 C67.11198555 17.49290153 68.59671293 19.06777517 71.296875 22.29296875 C71.6475 23.01484375 71.998125 23.73671875 72.359375 24.48046875 C73.58619657 26.85232378 74.90628279 27.20633593 77.296875 28.29296875 C79.046875 29.79296875 79.046875 29.79296875 80.296875 31.29296875 C80.296875 31.95296875 80.296875 32.61296875 80.296875 33.29296875 C81.286875 33.62296875 82.276875 33.95296875 83.296875 34.29296875 C83.296875 34.95296875 83.296875 35.61296875 83.296875 36.29296875 C83.956875 36.29296875 84.616875 36.29296875 85.296875 36.29296875 C88.296875 40.67758413 88.296875 40.67758413 88.296875 43.29296875 C88.956875 43.29296875 89.616875 43.29296875 90.296875 43.29296875 C90.750625 44.40671875 91.204375 45.52046875 91.671875 46.66796875 C93.02153486 50.25495883 93.02153486 50.25495883 95.296875 52.29296875 C97.45482555 55.64978071 97.47580295 58.3565539 97.296875 62.29296875 C98.286875 62.62296875 99.276875 62.95296875 100.296875 63.29296875 C100.296875 65.93296875 100.296875 68.57296875 100.296875 71.29296875 C100.956875 71.29296875 101.616875 71.29296875 102.296875 71.29296875 C102.626875 74.59296875 102.956875 77.89296875 103.296875 81.29296875 C103.626875 81.29296875 103.956875 81.29296875 104.296875 81.29296875 C104.296875 89.21296875 104.296875 97.13296875 104.296875 105.29296875 C103.636875 105.29296875 102.976875 105.29296875 102.296875 105.29296875 C102.33167969 105.99421875 102.36648438 106.69546875 102.40234375 107.41796875 C102.56079898 112.97144741 102.31836088 117.34350814 100.08984375 122.44921875 C99.1314087 124.56788231 99.1314087 124.56788231 98.234375 128.04296875 C97.11839801 131.91168897 96.1416225 134.44822125 93.296875 137.29296875 C92.6543515 139.36170909 92.6543515 139.36170909 92.296875 141.29296875 C91.636875 141.29296875 90.976875 141.29296875 90.296875 141.29296875 C90.02875 142.26234375 89.760625 143.23171875 89.484375 144.23046875 C89.0925 145.24109375 88.700625 146.25171875 88.296875 147.29296875 C87.306875 147.62296875 86.316875 147.95296875 85.296875 148.29296875 C85.008125 149.03546875 84.719375 149.77796875 84.421875 150.54296875 C82.14988915 156.09671195 76.82092107 159.5557133 72.296875 163.29296875 C71.719375 163.89109375 71.141875 164.48921875 70.546875 165.10546875 C69.296875 166.29296875 69.296875 166.29296875 67.296875 166.29296875 C67.296875 166.95296875 67.296875 167.61296875 67.296875 168.29296875 C66.306875 168.29296875 65.316875 168.29296875 64.296875 168.29296875 C64.17505859 169.22109375 64.17505859 169.22109375 64.05078125 170.16796875 C63.296875 172.29296875 63.296875 172.29296875 61.51171875 173.41796875 C60.38443359 173.85109375 60.38443359 173.85109375 59.234375 174.29296875 C56.05979385 175.56482002 53.05495024 176.91574329 50.046875 178.54296875 C47.00410569 180.10086664 44.77294365 180.72747733 41.296875 180.29296875 C41.1009375 180.9271875 40.905 181.56140625 40.703125 182.21484375 C39.296875 184.29296875 39.296875 184.29296875 36.515625 185.12109375 C19.28959697 187.07530701 -1.86444997 189.30673154 -18.703125 184.29296875 C-19.90625 182.25390625 -19.90625 182.25390625 -20.703125 180.29296875 C-24.02108585 179.60423588 -24.02108585 179.60423588 -27.703125 179.29296875 C-29.71729062 178.67040847 -31.72328019 178.01730222 -33.703125 177.29296875 C-33.703125 176.63296875 -33.703125 175.97296875 -33.703125 175.29296875 C-34.34121094 175.1228125 -34.97929687 174.95265625 -35.63671875 174.77734375 C-36.87615234 174.41382813 -36.87615234 174.41382813 -38.140625 174.04296875 C-39.37619141 173.69492188 -39.37619141 173.69492188 -40.63671875 173.33984375 C-42.703125 172.29296875 -42.703125 172.29296875 -43.48828125 170.18359375 C-43.59462891 169.24773437 -43.59462891 169.24773437 -43.703125 168.29296875 C-44.693125 168.29296875 -45.683125 168.29296875 -46.703125 168.29296875 C-46.703125 167.63296875 -46.703125 166.97296875 -46.703125 166.29296875 C-48.023125 165.96296875 -49.343125 165.63296875 -50.703125 165.29296875 C-50.703125 164.63296875 -50.703125 163.97296875 -50.703125 163.29296875 C-51.363125 163.29296875 -52.023125 163.29296875 -52.703125 163.29296875 C-52.703125 162.63296875 -52.703125 161.97296875 -52.703125 161.29296875 C-53.693125 160.96296875 -54.683125 160.63296875 -55.703125 160.29296875 C-55.703125 159.63296875 -55.703125 158.97296875 -55.703125 158.29296875 C-56.363125 158.29296875 -57.023125 158.29296875 -57.703125 158.29296875 C-57.703125 157.63296875 -57.703125 156.97296875 -57.703125 156.29296875 C-58.693125 155.96296875 -59.683125 155.63296875 -60.703125 155.29296875 C-60.703125 154.63296875 -60.703125 153.97296875 -60.703125 153.29296875 C-61.363125 153.29296875 -62.023125 153.29296875 -62.703125 153.29296875 C-63.198125 151.31296875 -63.198125 151.31296875 -63.703125 149.29296875 C-64.363125 149.29296875 -65.023125 149.29296875 -65.703125 149.29296875 C-65.703125 148.30296875 -65.703125 147.31296875 -65.703125 146.29296875 C-66.363125 146.29296875 -67.023125 146.29296875 -67.703125 146.29296875 C-67.703125 145.30296875 -67.703125 144.31296875 -67.703125 143.29296875 C-68.693125 142.96296875 -69.683125 142.63296875 -70.703125 142.29296875 C-70.703125 141.30296875 -70.703125 140.31296875 -70.703125 139.29296875 C-71.363125 139.29296875 -72.023125 139.29296875 -72.703125 139.29296875 C-72.703125 137.64296875 -72.703125 135.99296875 -72.703125 134.29296875 C-73.363125 134.29296875 -74.023125 134.29296875 -74.703125 134.29296875 C-77.11998212 130.0634688 -78.05145644 127.16960884 -77.703125 122.29296875 C-78.363125 122.29296875 -79.023125 122.29296875 -79.703125 122.29296875 C-79.826875 121.22046875 -79.950625 120.14796875 -80.078125 119.04296875 C-80.43440568 115.50792096 -80.43440568 115.50792096 -81.7277832 113.56860352 C-83.18655204 110.165053 -82.96812374 106.77249606 -82.93359375 103.1328125 C-82.93313553 102.34652969 -82.93267731 101.56024689 -82.9322052 100.75013733 C-82.92919023 99.09179165 -82.92132655 97.43344861 -82.90893555 95.77514648 C-82.89066526 93.23606342 -82.8884261 90.69734512 -82.88867188 88.15820312 C-82.88375674 86.54556976 -82.87792845 84.93293887 -82.87109375 83.3203125 C-82.86998093 82.56088852 -82.8688681 81.80146454 -82.86772156 81.01902771 C-82.83914039 77.84899966 -82.7128755 75.32222026 -81.703125 72.29296875 C-81.043125 72.29296875 -80.383125 72.29296875 -79.703125 72.29296875 C-79.785625 71.34421875 -79.868125 70.39546875 -79.953125 69.41796875 C-79.96358214 64.25213959 -77.77168806 59.93426078 -75.703125 55.29296875 C-75.11859853 53.91847554 -74.53509935 52.54354449 -73.953125 51.16796875 C-73.540625 50.21921875 -73.128125 49.27046875 -72.703125 48.29296875 C-72.043125 48.29296875 -71.383125 48.29296875 -70.703125 48.29296875 C-69.62787306 45.64068063 -68.60856349 43.00928421 -67.703125 40.29296875 C-67.043125 40.29296875 -66.383125 40.29296875 -65.703125 40.29296875 C-65.373125 38.97296875 -65.043125 37.65296875 -64.703125 36.29296875 C-64.043125 36.29296875 -63.383125 36.29296875 -62.703125 36.29296875 C-62.703125 35.63296875 -62.703125 34.97296875 -62.703125 34.29296875 C-62.043125 34.29296875 -61.383125 34.29296875 -60.703125 34.29296875 C-60.703125 33.30296875 -60.703125 32.31296875 -60.703125 31.29296875 C-60.043125 31.29296875 -59.383125 31.29296875 -58.703125 31.29296875 C-58.703125 30.63296875 -58.703125 29.97296875 -58.703125 29.29296875 C-57.12890625 27.7421875 -57.12890625 27.7421875 -55.015625 25.98046875 C-52.55855659 23.90340389 -50.3050453 21.87593287 -48.078125 19.54296875 C-45.45223668 17.05528508 -42.97849087 15.79417811 -39.703125 14.29296875 C-38.8575 13.75671875 -38.011875 13.22046875 -37.140625 12.66796875 C-34.6189042 11.24545958 -32.55243748 10.70001339 -29.703125 10.29296875 C-29.703125 9.63296875 -29.703125 8.97296875 -29.703125 8.29296875 C-28.053125 7.96296875 -26.403125 7.63296875 -24.703125 7.29296875 C-24.703125 6.63296875 -24.703125 5.97296875 -24.703125 5.29296875 C-23.88328125 5.18339844 -23.0634375 5.07382813 -22.21875 4.9609375 C-21.14109375 4.80238281 -20.0634375 4.64382813 -18.953125 4.48046875 C-17.35210937 4.25423828 -17.35210937 4.25423828 -15.71875 4.0234375 C-12.71849848 3.55682895 -12.71849848 3.55682895 -11.05859375 1.765625 C-7.53744357 -0.43582378 -4.02087939 -0.07680966 0 0 Z " fill="#9b57e2" transform="translate(501.703125,1415.70703125)"/>
<path d="M0 0 C12.54 0 25.08 0 38 0 C38 0.66 38 1.32 38 2 C43.28 2.99 48.56 3.98 54 5 C54 5.66 54 6.32 54 7 C55.98 7.33 57.96 7.66 60 8 C60 8.66 60 9.32 60 10 C61.051875 10.2475 62.10375 10.495 63.1875 10.75 C66.83265183 11.77358809 69.12436067 13.52375502 72 16 C72.99 16.33 73.98 16.66 75 17 C75 17.66 75 18.32 75 19 C75.99 19.33 76.98 19.66 78 20 C78 20.66 78 21.32 78 22 C78.721875 22.226875 79.44375 22.45375 80.1875 22.6875 C83.56432417 24.26335128 85.55767039 26.20876616 88 29 C88 29.66 88 30.32 88 31 C88.66 31 89.32 31 90 31 C90.99 33.475 90.99 33.475 92 36 C92.66 36 93.32 36 94 36 C94.33 36.99 94.66 37.98 95 39 C95.66 39.33 96.32 39.66 97 40 C97 40.99 97 41.98 97 43 C97.66 43 98.32 43 99 43 C99 44.32 99 45.64 99 47 C99.99 47.33 100.98 47.66 102 48 C103.70533217 51.32091002 104 53.18492784 104 57 C104.99 57.33 105.98 57.66 107 58 C108.80886571 62.76017293 109.20666253 66.93676791 109 72 C109.66 72 110.32 72 111 72 C111.33 74.64 111.66 77.28 112 80 C112.33 80 112.66 80 113 80 C113 88.58 113 97.16 113 106 C112.67 106 112.34 106 112 106 C111.67 108.97 111.34 111.94 111 115 C110.34 115 109.68 115 109 115 C109.061875 115.99 109.12375 116.98 109.1875 118 C109.21491645 122.46888211 107.7208227 125.91304608 106 130 C105.34 130 104.68 130 104 130 C104 131.32 104 132.64 104 134 C103.34 134 102.68 134 102 134 C101.88785156 134.72574219 101.77570313 135.45148438 101.66015625 136.19921875 C100.97038613 139.12563993 99.94489186 141.22287809 98.4375 143.8125 C97.98246094 144.60269531 97.52742188 145.39289063 97.05859375 146.20703125 C96.70925781 146.79871094 96.35992188 147.39039063 96 148 C95.34 148 94.68 148 94 148 C93.731875 148.763125 93.46375 149.52625 93.1875 150.3125 C92.04865495 152.88988618 91.18583329 154.26954864 89 156 C88.34 156 87.68 156 87 156 C87 156.66 87 157.32 87 158 C86.34 158 85.68 158 85 158 C84.67 158.99 84.34 159.98 84 161 C83.34 161 82.68 161 82 161 C82 161.66 82 162.32 82 163 C81.34 163 80.68 163 80 163 C79.67 163.99 79.34 164.98 79 166 C76 168 76 168 73 168 C72.87818359 168.928125 72.87818359 168.928125 72.75390625 169.875 C72 172 72 172 70.21484375 173.125 C69.08755859 173.558125 69.08755859 173.558125 67.9375 174 C64.76291885 175.27185127 61.75807524 176.62277454 58.75 178.25 C55.70723069 179.80789789 53.47606865 180.43450858 50 180 C49.8040625 180.63421875 49.608125 181.2684375 49.40625 181.921875 C48 184 48 184 45.21875 184.828125 C27.99272197 186.78233826 6.83867503 189.01376279 -10 184 C-11.19921875 181.9609375 -11.19921875 181.9609375 -12 180 C-15.36060068 179.31730524 -15.36060068 179.31730524 -19 179 C-21.9375 177.9375 -21.9375 177.9375 -24 177 C-24 176.34 -24 175.68 -24 175 C-24.804375 174.814375 -24.804375 174.814375 -25.625 174.625 C-26.40875 174.41875 -27.1925 174.2125 -28 174 C-29.051875 173.731875 -30.10375 173.46375 -31.1875 173.1875 C-34 172 -34 172 -34.875 169.875 C-34.91625 169.25625 -34.9575 168.6375 -35 168 C-35.99 168 -36.98 168 -38 168 C-38 167.34 -38 166.68 -38 166 C-38.58652344 165.91621094 -39.17304687 165.83242187 -39.77734375 165.74609375 C-42.6442253 164.78374862 -43.67431429 163.39844339 -45.5625 161.0625 C-47.67531519 158.46971343 -49.17546286 156.88302476 -52 155 C-52 154.34 -52 153.68 -52 153 C-52.66 153 -53.32 153 -54 153 C-54.99 150.525 -54.99 150.525 -56 148 C-56.66 148 -57.32 148 -58 148 C-59.5078125 145.91796875 -59.5078125 145.91796875 -61.125 143.1875 C-61.66382813 142.29417969 -62.20265625 141.40085937 -62.7578125 140.48046875 C-64 138 -64 138 -64 135 C-64.66 135 -65.32 135 -66 135 C-66 133.35 -66 131.7 -66 130 C-66.66 130 -67.32 130 -68 130 C-70.22656164 125.25645564 -71.46148032 121.27749285 -72 116 C-72.33 116 -72.66 116 -73 116 C-74.89913927 100.43384064 -75.02055596 86.55106462 -73 71 C-72.67 71 -72.34 71 -72 71 C-71.67 68.69 -71.34 66.38 -71 64 C-70.34 64 -69.68 64 -69 64 C-69 62.02 -69 60.04 -69 58 C-67.515 57.505 -67.515 57.505 -66 57 C-66 55.35 -66 53.7 -66 52 C-65.34 52 -64.68 52 -64 52 C-63.67 50.35 -63.34 48.7 -63 47 C-62.34 47 -61.68 47 -61 47 C-61 45.68 -61 44.36 -61 43 C-60.34 43 -59.68 43 -59 43 C-57.79371992 40.66785852 -56.8345262 38.50357861 -56 36 C-55.34 36 -54.68 36 -54 36 C-53.34 34.35 -52.68 32.7 -52 31 C-51.34 31 -50.68 31 -50 31 C-50 30.34 -50 29.68 -50 29 C-48.3203125 27.2734375 -48.3203125 27.2734375 -46.125 25.375 C-45.40570312 24.74335937 -44.68640625 24.11171875 -43.9453125 23.4609375 C-42 22 -42 22 -40 22 C-39.505 20.515 -39.505 20.515 -39 19 C-38.34 19 -37.68 19 -37 19 C-37 18.34 -37 17.68 -37 17 C-35.865625 16.54625 -34.73125 16.0925 -33.5625 15.625 C-29.95278308 14.42904194 -29.95278308 14.42904194 -29 12 C-26.09740189 10.6250851 -24.23861295 10 -21 10 C-20.67 9.01 -20.34 8.02 -20 7 C-18.68 7 -17.36 7 -16 7 C-16 6.34 -16 5.68 -16 5 C-15.18015625 4.86722656 -14.3603125 4.73445313 -13.515625 4.59765625 C-12.43796875 4.42105469 -11.3603125 4.24445313 -10.25 4.0625 C-9.18265625 3.88847656 -8.1153125 3.71445313 -7.015625 3.53515625 C-4.63652407 3.11295829 -2.33084789 2.62797116 0 2 C0 1.34 0 0.68 0 0 Z " fill="#9b57e2" transform="translate(1520,1416)"/>
<path d="" fill="#9b57e2" transform="translate(0,0)"/>
<path d="" fill="#9b57e2" transform="translate(0,0)"/>
</svg>
