<?xml version="1.0" encoding="UTF-8"?>
<svg xmlns="http://www.w3.org/2000/svg" version="1.1" viewBox="0 0 1953 1953">
  <defs>
    <style>
      .cls-1 {
        fill: #9d63f8;
        stroke-width: 0px;
      }
    </style>
  </defs>
  <g id="Layer_1" data-name="Layer 1">
    <path class="cls-1" d="M1252,958l1,2-1-2Z"/>
    <path class="cls-1" d="M937.4,898.6c24.4,21.3,38.3,48,40.6,80.4,1.8,30.7-6.6,59.1-26,83-.6.7-1.1,1.5-1.7,2.2-17.1,20.7-44.9,33.6-71.3,36.8-32.3,2.1-64.3-3.8-89.4-25.6-.9-.8-1.7-1.6-2.6-2.4-.5-.4-1-.9-1.5-1.4-22.5-20.8-34.3-49-35.8-79.4-.9-30.4,8.7-59.9,29.3-82.6,40.1-42.5,112.9-49.2,158.4-11ZM832.3,951.9c-8.4,10.6-10.6,22.2-10.6,35.5,0,1,0,1.9,0,2.9,0,12.2,3.7,22.9,10.6,33,8.8,8.8,19,12.6,31.4,13,11.5-.1,21.7-3.3,30.4-11,10.2-10.7,13.4-25.7,13.2-40-1-15.6-5.3-28.5-17.2-39.2-17.8-11.7-43.2-10-57.7,5.9Z"/>
    <path class="cls-1" d="M554,878q27.2,0,54.9-.2c5.7,0,11.4,0,17.2,0q7,0,10.3,0c2.3,0,4.6,0,6.8,0,27.2-.2,52.2,2.6,72.9,22,14.4,15.2,19.4,34.1,20,54.4-.5,20.2-7.2,38.8-21.4,53.2-16.1,15.2-37.4,21.9-59.2,21.8-.8,0-1.6,0-2.4,0-2.9,0-5.8,0-8.6,0-6.5,0-12.9,0-19.6,0v70h-71v-221ZM625,934v40q5.1,0,10.4.2,1.6,0,3.2,0c7,0,14.7-.3,20.4-4.9,4.5-4.6,6-9.6,6.1-15.9-.4-6.9-2.4-10.9-7.3-15.7-6.8-4.4-13.8-4-21.6-3.9-3.7,0-7.3,0-11.1.1Z"/>
    <path class="cls-1" d="M382,878h148v56h-78v26h68v53h-68v30h78v56h-148v-221Z"/>
    <path class="cls-1" d="M0,0"/>
    <path class="cls-1" d="M0,0"/>
  </g>
  <g id="Layer_2" data-name="Layer 2">
    <rect class="cls-1" x="396.4" y="653.9" width="1366.7" height="160.1"/>
    <rect class="cls-1" x="349.9" y="1186" width="1171.7" height="160.1"/>
    <rect class="cls-1" x="221.9" y="467" width="168.7" height="288.3" transform="translate(-143.2 96.1) rotate(-14.5)"/>
    <ellipse class="cls-1" cx="512.4" cy="1509.4" rx="93.6" ry="93.6"/>
    <ellipse class="cls-1" cx="1541" cy="1509.5" rx="93.6" ry="93.6"/>
    <rect class="cls-1" x="276.7" y="1187.9" width="277.3" height="159.2" rx="59.5" ry="59.5"/>
    <rect class="cls-1" x="75.7" y="401.6" width="277.3" height="159.2" rx="59.5" ry="59.5"/>
    <rect class="cls-1" x="257.8" y="654.4" width="277.3" height="159.2" rx="59.5" ry="59.5"/>
    <rect class="cls-1" x="1557.2" y="654.4" width="277.3" height="159.2" rx="59.5" ry="59.5"/>
    <rect class="cls-1" x="1380" y="1187.9" width="277.3" height="159.2" rx="59.5" ry="59.5"/>
    <rect class="cls-1" x="1079.9" y="721.8" width="160" height="528.7" transform="translate(363.7 -311.5) rotate(18.1)"/>
    <rect class="cls-1" x="1331.2" y="735.8" width="160" height="528.7" transform="translate(380.5 -388.9) rotate(18.1)"/>
    <rect class="cls-1" x="1587.6" y="714.4" width="160" height="576.4" transform="translate(394 -468.5) rotate(18.1)"/>
  </g>
</svg>